0
SECTION
2
HEADER
9
$INSUNITS
70
4
9
$ACADVER
1
AC1014
9
$HANDSEED
5
FFFF
0
ENDSEC
0
SECTION
2
TABLES
0
TABLE
2
VPORT
5
8
100
AcDbSymbolTable
0
ENDTAB
0
TABLE
2
LTYPE
5
5
100
AcDbSymbolTable
0
LTYPE
5
14
100
AcDbSymbolTableRecord
100
AcDbLinetypeTableRecord
2
BYBLOCK
70
0
0
LTYPE
5
15
100
AcDbSymbolTableRecord
100
AcDbLinetypeTableRecord
2
BYLAYER
70
0
0
ENDTAB
0
TABLE
2
LAYER
5
2
100
AcDbSymbolTable
70
2
0
LAYER
5
50
100
AcDbSymbolTableRecord
100
AcDbLayerTableRecord
2
0
70
0
6
CONTINUOUS
0
ENDTAB
0
TABLE
2
STYLE
5
3
100
AcDbSymbolTable
70
1
0
STYLE
5
11
100
AcDbSymbolTableRecord
100
AcDbTextStyleTableRecord
2
STANDARD
70
0
0
ENDTAB
0
TABLE
2
VIEW
5
6
100
AcDbSymbolTable
70
0
0
ENDTAB
0
TABLE
2
UCS
5
7
100
AcDbSymbolTable
70
0
0
ENDTAB
0
TABLE
2
APPID
5
9
100
AcDbSymbolTable
70
2
0
APPID
5
12
100
AcDbSymbolTableRecord
100
AcDbRegAppTableRecord
2
ACAD
70
0
0
ENDTAB
0
TABLE
2
DIMSTYLE
5
A
100
AcDbSymbolTable
70
1
0
ENDTAB
0
TABLE
2
BLOCK_RECORD
5
1
100
AcDbSymbolTable
70
1
0
BLOCK_RECORD
5
1F
100
AcDbSymbolTableRecord
100
AcDbBlockTableRecord
2
*MODEL_SPACE
0
BLOCK_RECORD
5
1B
100
AcDbSymbolTableRecord
100
AcDbBlockTableRecord
2
*PAPER_SPACE
0
ENDTAB
0
ENDSEC
0
SECTION
2
BLOCKS
0
BLOCK
5
20
100
AcDbEntity
100
AcDbBlockBegin
2
*MODEL_SPACE
0
ENDBLK
5
21
100
AcDbEntity
100
AcDbBlockEnd
0
BLOCK
5
1C
100
AcDbEntity
100
AcDbBlockBegin
2
*PAPER_SPACE
0
ENDBLK
5
1D
100
AcDbEntity
100
AcDbBlockEnd
0
ENDSEC
0
SECTION
2
ENTITIES
0
LINE
5
100
100
AcDbEntity
8
0
100
AcDbLine
10
1.201864536810096
20
-82.170930044543411
30
0
11
49.74860784682825
21
-82.175903970794749
31
7.4437192350566666e-31
0
LINE
5
101
100
AcDbEntity
8
0
100
AcDbLine
10
49.74860784682825
20
-82.175903970794749
30
7.4437192350566666e-31
11
49.748608051741115
21
-82.173903970805242
31
0
0
ARC
5
102
100
AcDbEntity
8
0
100
AcDbCircle
10
49.748454367089401
20
-83.673903962932243
30
0
40
1.5000000000000049
210
4.6208806224131346e-33
220
1.1175733249419373e-34
230
1
100
AcDbArc
50
1.3854448896955585
51
89.994129678710294
0
LINE
5
103
100
AcDbEntity
8
0
100
AcDbLine
10
51.248015863303173
20
-83.637636635030503
30
-6.9333477997940504e-33
11
51.250354989737531
21
-83.734353546329956
31
-5.5511151231257827e-16
0
ARC
5
104
100
AcDbEntity
8
0
100
AcDbCircle
10
53.749624150093808
20
-83.67390799982708
30
-5.5511151231257827e-16
40
2.4999999999999951
210
0
220
0
230
1
100
AcDbArc
50
181.38544488969504
51
270.00001355006998
0
LINE
5
105
100
AcDbEntity
8
0
100
AcDbLine
10
53.749624741327146
20
-86.173907999827009
30
-5.5511151231257827e-16
11
70.662676164567401
21
-86.173904000003063
31
-5.5511151231257827e-16
0
ARC
5
106
100
AcDbEntity
8
0
100
AcDbCircle
10
70.66267557333407
20
-83.673904000003148
30
-5.5511151231257827e-16
40
2.4999999999999991
210
0
220
0
230
1
100
AcDbArc
50
270.00001355006987
51
322.49907144597063
0
LINE
5
107
100
AcDbEntity
8
0
100
AcDbLine
10
72.646034259337625
20
-85.195839715680449
30
-5.5511151231257827e-16
11
74.031522674078843
21
-83.390296647449503
31
0
0
ARC
5
108
100
AcDbEntity
8
0
100
AcDbCircle
10
75.221537885680974
20
-84.303458076855904
30
0
40
1.5000000000000016
210
0
220
0
230
1
100
AcDbArc
50
94.000001351099783
51
142.49907144596997
0
LINE
5
109
100
AcDbEntity
8
0
100
AcDbLine
10
75.116903139779239
20
-82.807112003933568
30
0
11
92.073529487556144
21
-81.621388780304471
31
0
0
ARC
5
110
100
AcDbEntity
8
0
100
AcDbCircle
10
91.899138244386606
20
-79.127478658767274
30
-5.5511151231257827e-16
40
2.4999999999999729
210
-1.5489053876787004e-17
220
2.2150371506210975e-16
230
1
100
AcDbArc
50
-85.999998648900629
51
1.1314387801191339
0
ARC
5
111
100
AcDbEntity
8
0
100
AcDbCircle
10
116.39436142488655
20
-78.643700468376082
30
-7.6633509767763434e-46
40
22.000000000000007
210
2.1769543328850508e-32
220
-4.8883475035885034e-32
230
1
100
AcDbArc
50
97.999954356446423
51
181.13143878011911
0
LINE
5
112
100
AcDbEntity
8
0
100
AcDbLine
10
113.33257055907198
20
-56.857800516939264
30
1.1316242853275787e-30
11
130.42724535847432
21
-54.455314538781245
31
0
0
ARC
5
113
100
AcDbEntity
8
0
100
AcDbCircle
10
130.07931457826811
20
-51.979644089754309
30
3.1474477226045696e-46
40
2.5000000000000213
210
1.830899654475526e-32
220
2.5731467833745062e-33
230
1
100
AcDbArc
50
-82.000045643553378
51
8.0001156005591163
0
LINE
5
114
100
AcDbEntity
8
0
100
AcDbLine
10
132.55498404812431
20
-51.631706342417026
30
-4.6222318665293912e-32
11
130.34212581385907
21
-35.886632364055544
31
0
0
ARC
5
115
100
AcDbEntity
8
0
100
AcDbCircle
10
127.8664563440029
20
-36.234570111392841
30
5.5511151231257817e-16
40
2.5000000000000071
210
2.1988361974366781e-16
220
3.0903079858406013e-17
230
1
100
AcDbArc
50
8.0001156005595284
51
97.278417780746949
0
SPLINE
5
116
100
AcDbEntity
8
0
100
AcDbSpline
70
4
71
5
72
16
73
10
74
0
42
0.000000001
43
0.0000000001
44
0.0000000001
40
0
40
0
40
0
40
0
40
0
40
0
40
0.20000000000000001
40
0.40000000000000002
40
0.60000000000000009
40
0.80000000000000004
40
1
40
1
40
1
40
1
40
1
40
1
41
1
41
1
41
1
41
1
41
1
41
1
41
1
41
1
41
1
41
1
10
127.54972891395897
20
-33.754714523851945
30
5.5511151231257827e-16
10
126.25135165822746
20
-33.920543410623175
30
5.5511151231257827e-16
10
123.79172751764203
20
-34.155732228454681
30
0
10
120.51333039486707
20
-34.219225468110032
30
0
10
116.86643703362073
20
-33.680946538732577
30
0
10
113.22197510880542
20
-31.438271861641045
30
0
10
110.91770182280845
20
-27.581373602588933
30
-5.5511151231257827e-16
10
109.54227694937657
20
-22.941197794743427
30
0
10
108.79397023255632
20
-18.94644011735701
30
0
10
108.46200903667281
20
-16.723531433583435
30
5.5511151231257827e-16
0
ARC
5
117
100
AcDbEntity
8
0
100
AcDbCircle
10
105.98942797293742
20
-17.092777805613053
30
5.5511151231257827e-16
40
2.4999999999999813
210
1.9505225361706669e-31
220
2.9128402728886587e-32
230
1
100
AcDbArc
50
8.4935775653770094
51
97.999905583365248
0
LINE
5
118
100
AcDbEntity
8
0
100
AcDbLine
10
105.64149930014793
20
-14.617107060410667
30
5.5511151231257827e-16
11
89.896424248153608
21
-16.829906592185012
31
0
0
ARC
5
119
100
AcDbEntity
8
0
100
AcDbCircle
10
90.244352920943086
20
-19.305577337387394
30
9.2370748380786282e-47
40
2.4999999999999925
210
6.1029995760958765e-33
220
8.5771039895381238e-34
230
1
100
AcDbArc
50
97.999905583364935
51
187.99832954070126
0
LINE
5
120
100
AcDbEntity
8
0
100
AcDbLine
10
87.768672606156798
20
-19.653437911439237
30
1.5407439555097887e-32
11
87.993602999909342
21
-21.254239466855722
31
5.5511151231257827e-16
0
ARC
5
121
100
AcDbEntity
8
0
100
AcDbCircle
10
86.508194811037555
20
-21.462955811286825
30
0
40
1.4999999999999993
210
3.4393306848103314e-33
220
-4.9183700016926682e-32
230
1
100
AcDbArc
50
-85.999917294462605
51
7.9983295407011203
0
LINE
5
122
100
AcDbEntity
8
0
100
AcDbLine
10
86.612831681605158
20
-22.959301735636476
30
-7.3955709864469879e-32
11
58.957262265526197
21
-24.893207652960385
31
0
0
ARC
5
123
100
AcDbEntity
8
0
100
AcDbCircle
10
57.631861905003362
20
-5.9394926111980997
30
-5.5511151231257827e-16
40
19
210
3.2412271765505114e-32
220
1.2590112959537202e-33
230
1
100
AcDbArc
50
182.22445950753072
51
274.00008270553695
0
ARC
5
124
100
AcDbEntity
8
0
100
AcDbCircle
10
36.148063495701862
20
-6.774001993107257
30
7.6975623650655235e-48
40
2.5000000000000022
210
2.2187728046894686e-16
220
8.6185258610355391e-18
230
1
100
AcDbArc
50
2.2244595075307165
51
89.999518976078278
0
LINE
5
125
100
AcDbEntity
8
0
100
AcDbLine
10
36.1480844843299
20
-4.2740019931953555
30
-8.0717494244784309e-48
11
26.167005495749542
21
-4.2739181975336322
31
1.5324684752799998e-32
0
ARC
5
126
100
AcDbEntity
8
0
100
AcDbCircle
10
26.167492431920021
20
53.726081800422357
30
0
40
58.000000000000028
210
1.2096068778207385e-32
220
-2.3694311648649462e-33
230
1
100
AcDbArc
50
258.91698301050434
51
269.99951897607826
0
LINE
5
127
100
AcDbEntity
8
0
100
AcDbLine
10
15.018088999999989
20
-3.1922000000000139
30
1.313259538780804e-46
11
2.4452405100680785
21
-0.51977465023600622
31
1.2325951644078309e-31
0
ARC
5
128
100
AcDbEntity
8
0
100
AcDbCircle
10
1.9254642782407883
20
-2.9651442887216528
30
1.1973985901213036e-47
40
2.4999999999999996
210
-4.222477135676418e-33
220
-4.9507760005230353e-32
230
1
100
AcDbArc
50
78.000070178887739
51
168.000324986891
0
LINE
5
129
100
AcDbEntity
8
0
100
AcDbLine
10
-0.51990767178960562
20
-2.4453789320417911
30
1.5407439555097884e-32
11
-3.8256244826194141
21
-17.997987546790419
31
0
0
ARC
5
130
100
AcDbEntity
8
0
100
AcDbCircle
10
-1.3802525325890145
20
-18.517752903470285
30
-3.4211388289180104e-46
40
2.5000000000000053
210
1.0250564211356997e-32
220
4.8226458097468865e-32
230
1
100
AcDbArc
50
168.00032498689092
51
258.00032351268027
0
LINE
5
131
100
AcDbEntity
8
0
100
AcDbLine
10
-1.9000179521878844
20
-20.963124840127211
30
1.2325951644078305e-31
11
12.060752249254168
21
-23.930495763503398
31
0
0
ARC
5
132
100
AcDbEntity
8
0
100
AcDbCircle
10
11.748892997494849
20
-25.39771892549755
30
-5.5511151231257827e-16
40
1.5000000000000002
210
9.8522829009082517e-54
220
-4.0613494996872667e-49
230
1
100
AcDbArc
50
0.0013899177987757832
51
78.000323512680325
0
LINE
5
133
100
AcDbEntity
8
0
100
AcDbLine
10
13.248892997053488
20
-25.397682537532546
30
-5.5511151231257827e-16
11
13.249396998823038
21
-46.17385548271335
31
-5.5511151231257827e-16
0
ARC
5
134
100
AcDbEntity
8
0
100
AcDbCircle
10
11.249396999411518
20
-46.173904000000022
30
-5.5511151231257827e-16
40
2.0000000000000018
210
4.0444528832131241e-33
220
0
230
1
100
AcDbArc
50
-90
51
0.0013899177987757832
0
LINE
5
135
100
AcDbEntity
8
0
100
AcDbLine
10
11.249396999411518
20
-48.173904000000022
30
-5.5511151231257827e-16
11
1.2504880002822394
21
-48.173904000000022
31
-1.5446894582914833e-47
0
ARC
5
136
100
AcDbEntity
8
0
100
AcDbCircle
10
1.2504880002822354
20
-50.173904000000022
30
-3.3698217464842403e-46
40
1.9999999999999929
210
1.23109813022163e-32
220
-1.8468652610329332e-46
230
1
100
AcDbArc
50
89.999999999999901
51
179.99903743126723
0
LINE
5
137
100
AcDbEntity
8
0
100
AcDbLine
10
-0.74951199943551727
20
-50.173870400000034
30
2.4620306000006691e-32
11
-0.75001595919951991
21
-80.171475400000048
31
0
0
ARC
5
138
100
AcDbEntity
8
0
100
AcDbCircle
10
1.2499840405182512
20
-80.171509000000029
30
1.0810798699380913e-45
40
2.0000000000000111
210
-8.3179854876087673e-37
220
-4.951181837861051e-32
230
1
100
AcDbArc
50
179.99903743088859
51
268.6213447300633
0
ENDSEC
0
SECTION
2
OBJECTS
0
DICTIONARY
5
C
100
AcDbDictionary
3
ACAD_GROUP
350
D
3
ACAD_MLINESTYLE
350
17
0
DICTIONARY
5
D
100
AcDbDictionary
0
DICTIONARY
5
1A
330
C
100
AcDbDictionary
0
DICTIONARY
5
17
100
AcDbDictionary
0
ENDSEC
0
EOF
