0
SECTION
2
HEADER
9
$INSUNITS
70
4
9
$ACADVER
1
AC1014
9
$HANDSEED
5
FFFF
0
ENDSEC
0
SECTION
2
TABLES
0
TABLE
2
VPORT
5
8
100
AcDbSymbolTable
0
ENDTAB
0
TABLE
2
LTYPE
5
5
100
AcDbSymbolTable
0
LTYPE
5
14
100
AcDbSymbolTableRecord
100
AcDbLinetypeTableRecord
2
BYBLOCK
70
0
0
LTYPE
5
15
100
AcDbSymbolTableRecord
100
AcDbLinetypeTableRecord
2
BYLAYER
70
0
0
ENDTAB
0
TABLE
2
LAYER
5
2
100
AcDbSymbolTable
70
2
0
LAYER
5
50
100
AcDbSymbolTableRecord
100
AcDbLayerTableRecord
2
0
70
0
6
CONTINUOUS
0
ENDTAB
0
TABLE
2
STYLE
5
3
100
AcDbSymbolTable
70
1
0
STYLE
5
11
100
AcDbSymbolTableRecord
100
AcDbTextStyleTableRecord
2
STANDARD
70
0
0
ENDTAB
0
TABLE
2
VIEW
5
6
100
AcDbSymbolTable
70
0
0
ENDTAB
0
TABLE
2
UCS
5
7
100
AcDbSymbolTable
70
0
0
ENDTAB
0
TABLE
2
APPID
5
9
100
AcDbSymbolTable
70
2
0
APPID
5
12
100
AcDbSymbolTableRecord
100
AcDbRegAppTableRecord
2
ACAD
70
0
0
ENDTAB
0
TABLE
2
DIMSTYLE
5
A
100
AcDbSymbolTable
70
1
0
ENDTAB
0
TABLE
2
BLOCK_RECORD
5
1
100
AcDbSymbolTable
70
1
0
BLOCK_RECORD
5
1F
100
AcDbSymbolTableRecord
100
AcDbBlockTableRecord
2
*MODEL_SPACE
0
BLOCK_RECORD
5
1B
100
AcDbSymbolTableRecord
100
AcDbBlockTableRecord
2
*PAPER_SPACE
0
ENDTAB
0
ENDSEC
0
SECTION
2
BLOCKS
0
BLOCK
5
20
100
AcDbEntity
100
AcDbBlockBegin
2
*MODEL_SPACE
0
ENDBLK
5
21
100
AcDbEntity
100
AcDbBlockEnd
0
BLOCK
5
1C
100
AcDbEntity
100
AcDbBlockBegin
2
*PAPER_SPACE
0
ENDBLK
5
1D
100
AcDbEntity
100
AcDbBlockEnd
0
ENDSEC
0
SECTION
2
ENTITIES
0
LWPOLYLINE
5
100
100
AcDbEntity
8
0
100
AcDbPolyline
90
386
70
1
43
0.0
10
-30.78388010531496
20
80.813465000000008
10
-30.723223105314965
20
80.534630000000007
10
-30.702866105314961
20
80.25
10
-30.703360105314957
20
50.25
10
-30.723717105314961
20
49.96537
10
-30.78437410531496
20
49.686534000000009
10
-30.88409610531496
20
49.419168999999997
10
-31.020853105314963
20
49.168717000000008
10
-31.19186110531496
20
48.940277000000009
10
-31.39363810531496
20
48.738498000000007
10
-31.622078105314962
20
48.567490000000006
10
-31.872530105314958
20
48.430731999999999
10
-32.139894105314958
20
48.331009999999999
10
-32.418730105314964
20
48.27035200000001
10
-32.703360105314957
20
48.25
10
-42.70237110531496
20
48.25
10
-42.987000105314962
20
48.229642000000005
10
-43.265835105314963
20
48.168985000000006
10
-43.533199105314964
20
48.069262000000002
10
-43.783650105314962
20
47.932504999999999
10
-44.012090105314961
20
47.761497000000006
10
-44.213867105314961
20
47.559719999999999
10
-44.384874105314964
20
47.33128
10
-44.521631105314967
20
47.080829000000001
10
-44.621352105314962
20
46.81346400000001
10
-44.682009105314961
20
46.534629000000002
10
-44.70237110531496
20
46.25
10
-44.701877105314964
20
25.473864000000006
10
-44.680206105314966
20
25.219842999999997
10
-44.61583010531497
20
24.973161000000008
10
-44.510609105314963
20
24.740944000000002
10
-44.367583105314957
20
24.529899999999998
10
-44.19088310531496
20
24.346124000000007
10
-43.985614105314959
20
24.194927
10
-43.757704105314957
20
24.080674999999996
10
-43.51374410531497
20
24.006641999999996
10
-29.552886105314961
20
21.039174999999997
10
-29.238148105314963
20
20.950410000000002
10
-28.937688105314958
20
20.821322000000002
10
-28.656649105314962
20
20.654122000000008
10
-28.399837105314958
20
20.451668000000005
10
-28.171648105314961
20
20.217425999999996
10
-27.975986105314963
20
19.955404000000001
10
-27.816199105314961
20
19.670084000000003
10
-27.69502010531496
20
19.366348999999996
10
-27.614524105314963
20
19.049395000000004
10
-27.576086105314957
20
18.724646
10
-27.580366105314962
20
18.397658000000003
10
-27.62729510531496
20
18.074027000000001
10
-31.452865688249712
20
0.0761053458962202
10
-46.471008105314965
20
3.2683059999999919
10
-47.924068105314959
20
3.5545149999999914
10
-49.385040105314957
20
3.7971270000000068
10
-50.852616105314965
20
3.9959239999999951
10
-52.325482105314961
20
4.1507299999999958
10
-53.802320105314969
20
4.261405000000007
10
-55.281808105314965
20
4.3278500000000086
10
-56.762622105314961
20
4.3499959999999938
10
-67.601889105314967
20
4.3499959999999938
10
-67.928203105314964
20
4.3713870000000021
10
-68.248933105314961
20
4.435185999999991
10
-68.55859110531496
20
4.5403040000000061
10
-68.851880105314962
20
4.6849399999999974
10
-69.123781105314961
20
4.8666210000000021
10
-69.369642105314966
20
5.0822370000000028
10
-69.585257105314966
20
5.3280999999999956
10
-69.766935105314971
20
5.6000019999999928
10
-69.911570105314965
20
5.8932919999999989
10
-70.016685105314963
20
6.2029519999999927
10
-70.080482105314971
20
6.5236819999999973
10
-70.101889105314967
20
6.8499959999999938
10
-70.121903105314956
20
7.7037759999999977
10
-70.181901105314964
20
8.5556790000000049
10
-70.281752105314951
20
9.4038360000000054
10
-70.421235105314963
20
10.246382999999994
10
-70.600044105314964
20
11.081468000000001
10
-70.817787105314963
20
11.907256999999998
10
-71.073985105314961
20
12.721937000000008
10
-71.368075105314958
20
13.523717000000008
10
-71.699411105314951
20
14.310836
10
-72.067266105314957
20
15.081563999999998
10
-72.470832105314969
20
15.834210000000004
10
-72.909221105314955
20
16.567119000000005
10
-73.381470105314961
20
17.278680000000001
10
-73.886543105314956
20
17.967332000000003
10
-74.42333010531496
20
18.631561999999995
10
-74.990651105314953
20
19.269908999999998
10
-75.587260105314968
20
19.880971000000002
10
-76.211846105314962
20
20.463407
10
-76.86303810531497
20
21.015937000000005
10
-77.539405105314955
20
21.537347000000004
10
-78.239461105314959
20
22.026491000000004
10
-78.961668105314956
20
22.482295000000008
10
-79.704439105314975
20
22.903757999999996
10
-80.466143105314956
20
23.289953000000008
10
-81.245107105314958
20
23.640033000000003
10
-82.039619105314969
20
23.953228000000006
10
-82.847933105314965
20
24.228850000000008
10
-83.668275105314962
20
24.466294000000008
10
-84.498841105314966
20
24.665037999999999
10
-85.337808105314963
20
24.824646000000001
10
-86.183333105314972
20
24.944766000000005
10
-87.033557105314969
20
25.025136000000003
10
-87.88661310531495
20
25.065577999999995
10
-88.740627105314971
20
25.066003000000006
10
-89.59372310531495
20
25.026419999999998
10
-118.06579210531497
20
23.035449999999997
10
-118.30878110531495
20
22.998269000000001
10
-118.54243410531497
20
22.921900999999998
10
-118.76047610531495
20
22.808396000000002
10
-118.95705310531497
20
22.660803999999999
10
-119.12688410531496
20
22.483087000000008
10
-119.26540910531497
20
22.280019000000006
10
-119.36890710531497
20
22.057053
10
-119.43459910531496
20
21.820176
10
-119.46072110531497
20
21.575751000000007
10
-119.44655910531496
20
21.330343999999997
10
-119.22159710531497
20
19.729653999999996
10
-119.19736010531496
20
19.403535999999999
10
-119.21589710531495
20
19.077044000000001
10
-119.27689110531497
20
18.755766000000005
10
-119.37929910531496
20
18.445197
10
-119.52136810531496
20
18.150652000000001
10
-119.70066810531495
20
17.877171000000001
10
-119.91413110531496
20
17.629432999999999
10
-120.15810410531495
20
17.411677000000001
10
-120.42841310531497
20
17.227629
10
-120.72043210531497
20
17.080438999999998
10
-121.02916510531497
20
16.972623000000002
10
-121.34933310531495
20
16.906050999999998
10
-137.09460410531497
20
14.693192000000002
10
-137.42072010531498
20
14.668953
10
-137.74721110531499
20
14.687488999999996
10
-138.06848810531497
20
14.748482999999997
10
-138.37905510531496
20
14.850890999999997
10
-138.67359810531497
20
14.992961999999999
10
-138.94707710531497
20
15.172262999999999
10
-139.19481110531495
20
15.385726999999996
10
-139.41256310531497
20
15.629702000000005
10
-139.59660610531498
20
15.900011999999997
10
-139.74379110531498
20
16.192032999999995
10
-139.85160010531499
20
16.500766999999996
10
-139.91820810531496
20
16.820929
10
-139.96962510531495
20
17.181233000000002
10
-140.02168610531496
20
17.535084000000005
10
-140.07439510531495
20
17.882581999999996
10
-140.12775310531498
20
18.223829000000002
10
-140.18176310531499
20
18.558924999999995
10
-140.23642810531496
20
18.887970999999997
10
-140.29174910531498
20
19.211068000000004
10
-140.34773110531495
20
19.528317000000001
10
-140.40437410531499
20
19.839818999999999
10
-140.46168210531496
20
20.145674000000007
10
-140.51965710531496
20
20.445983999999999
10
-140.57830210531495
20
20.740849000000008
10
-140.63761910531497
20
21.030369
10
-140.69761110531496
20
21.314647000000004
10
-140.75828010531498
20
21.593783000000002
10
-140.81962910531499
20
21.867877
10
-140.88166010531498
20
22.137030000000006
10
-140.94437610531497
20
22.401344000000005
10
-141.00777910531497
20
22.660919
10
-141.07187210531495
20
22.915856000000005
10
-141.13665710531495
20
23.166256000000001
10
-141.20213710531496
20
23.412219000000007
10
-141.26831510531497
20
23.653846999999999
10
-141.33519310531497
20
23.891240000000007
10
-141.40277310531496
20
24.124499999999998
10
-141.47105810531497
20
24.353726000000009
10
-141.54005010531495
20
24.579021000000001
10
-141.60975310531495
20
24.800484000000004
10
-141.68016810531495
20
25.018217000000007
10
-141.75129810531499
20
25.232320000000001
10
-141.89571410531497
20
25.650040000000001
10
-141.99189810531496
20
25.916436000000004
10
-142.08927810531497
20
26.177030000000006
10
-142.18787910531495
20
26.431906999999999
10
-142.28772610531496
20
26.681152000000008
10
-142.38884510531497
20
26.924848000000008
10
-142.49126010531495
20
27.163080999999998
10
-142.59499610531495
20
27.395934999999998
10
-142.70007910531496
20
27.623494999999998
10
-142.80653410531497
20
27.845845000000004
10
-142.91438510531495
20
28.063068999999999
10
-143.02365910531495
20
28.275252999999996
10
-143.13437910531496
20
28.482481
10
-143.24657210531495
20
28.684837000000005
10
-143.36026210531497
20
28.882405000000002
10
-143.47547510531496
20
29.075272000000005
10
-143.59223510531496
20
29.263519999999996
10
-143.71056810531496
20
29.447235000000003
10
-143.83050010531497
20
29.626501000000005
10
-143.95205410531497
20
29.801403000000004
10
-144.07525610531496
20
29.972025000000002
10
-144.20013110531497
20
30.138451000000003
10
-144.32670510531497
20
30.300767000000004
10
-144.45500210531495
20
30.459057000000005
10
-144.58504810531497
20
30.613405
10
-144.71686810531497
20
30.763896000000006
10
-144.85048710531498
20
30.910615000000004
10
-144.98593010531496
20
31.053645000000003
10
-145.12322210531497
20
31.193072999999998
10
-145.26238810531498
20
31.328981000000002
10
-145.40345310531495
20
31.461455000000001
10
-145.69138410531497
20
31.716438
10
-145.82242910531497
20
31.826076000000008
10
-145.95510810531496
20
31.933178000000009
10
-146.08947910531495
20
32.037751
10
-146.22560210531498
20
32.139804000000005
10
-146.36353510531495
20
32.23934400000001
10
-146.50333810531495
20
32.336376999999999
10
-146.64506910531497
20
32.430911000000009
10
-146.78878710531495
20
32.522953999999999
10
-146.93455310531496
20
32.612513999999997
10
-147.08242310531497
20
32.699596
10
-147.23245910531497
20
32.784210000000002
10
-147.38471810531496
20
32.866362000000002
10
-147.53926010531498
20
32.946059000000005
10
-147.69614310531497
20
33.023308999999998
10
-147.85542710531499
20
33.098120000000009
10
-148.01717210531496
20
33.170498000000002
10
-148.18143410531496
20
33.240452000000005
10
-148.34827510531497
20
33.307988000000002
10
-148.51775310531497
20
33.373112999999996
10
-148.68992710531498
20
33.435836000000009
10
-148.86485610531497
20
33.496164000000007
10
-149.04259810531497
20
33.554104000000002
10
-149.22321410531498
20
33.609662999999998
10
-149.40676210531495
20
33.662849000000001
10
-149.59330110531496
20
33.713668999999996
10
-149.78289010531495
20
33.762130999999997
10
-149.97558910531498
20
33.808240999999995
10
-150.17145610531497
20
33.852007999999998
10
-150.37055010531498
20
33.893439000000001
10
-150.57293010531498
20
33.932540000000003
10
-150.98778610531497
20
34.003785999999998
10
-151.17937710531496
20
34.032888999999997
10
-151.37375310531496
20
34.06007000000001
10
-151.57100810531497
20
34.085298999999992
10
-151.77123810531495
20
34.108547000000002
10
-151.97453810531496
20
34.129784000000001
10
-152.18100210531497
20
34.148980000000009
10
-152.39072610531497
20
34.166106999999997
10
-152.60380510531496
20
34.181134
10
-152.82033410531497
20
34.194031999999993
10
-153.04040910531495
20
34.204769999999996
10
-153.26412410531498
20
34.213320000000003
10
-153.49157410531495
20
34.219652000000011
10
-153.72285410531498
20
34.223736000000002
10
-153.95806110531498
20
34.225542000000004
10
-154.19728810531498
20
34.22504099999999
10
-154.44063110531496
20
34.222203
10
-154.68818510531497
20
34.216999000000001
10
-154.94004610531496
20
34.209398
10
-155.19630710531499
20
34.199371999999997
10
-155.45706510531497
20
34.186891000000003
10
-155.72241510531495
20
34.17192399999999
10
-155.99245110531496
20
34.154443000000008
10
-156.26726910531497
20
34.134416999999999
10
-156.54696310531497
20
34.111818
10
-156.83163010531499
20
34.086615000000009
10
-157.12136410531497
20
34.058777999999997
10
-157.41626010531496
20
34.028278999999998
10
-157.71641310531496
20
33.995086999999998
10
-158.02191910531496
20
33.959173000000007
10
-158.33287210531498
20
33.920507999999998
10
-158.97150210531495
20
33.83480200000001
10
-159.29761710531497
20
33.810578000000007
10
-159.62410510531498
20
33.829124999999998
10
-159.94537910531497
20
33.890126000000009
10
-160.25594310531494
20
33.992538999999994
10
-160.55048310531498
20
34.134609000000005
10
-160.82396110531499
20
34.313907999999998
10
-161.07169710531497
20
34.527366999999998
10
-161.28945410531497
20
34.771335000000008
10
-161.47350610531498
20
35.041637000000001
10
-161.62070310531499
20
35.333649000000008
10
-161.72852810531498
20
35.642375000000008
10
-161.79510610531497
20
35.962538000000002
10
-164.00796310531496
20
51.70780400000001
10
-164.03219310531497
20
52.033918
10
-164.01364910531495
20
52.360405000000007
10
-163.95265010531494
20
52.68167900000001
10
-163.85023810531496
20
52.992242000000005
10
-163.70816710531497
20
53.286782000000002
10
-163.52886710531496
20
53.560257
10
-163.31540510531497
20
53.807991000000008
10
-163.07143410531498
20
54.025743000000006
10
-162.80112910531497
20
54.209788000000003
10
-162.50911310531501
20
54.356977000000001
10
-162.20038510531498
20
54.464792000000003
10
-161.88022710531496
20
54.531407999999999
10
-143.60509310531495
20
57.099815999999997
10
-142.70379910531497
20
57.246839000000008
10
-141.80987210531495
20
57.433494000000003
10
-140.92505310531496
20
57.659419000000007
10
-140.05106610531496
20
57.924173000000003
10
-139.18961610531497
20
58.227238999999997
10
-138.34237910531496
20
58.568028000000005
10
-137.51100810531497
20
58.945876000000005
10
-136.69712210531497
20
59.360045
10
-135.90230810531497
20
59.809730000000002
10
-135.12811310531498
20
60.294053000000005
10
-134.37604710531497
20
60.812072000000008
10
-133.64757510531496
20
61.362775999999997
10
-132.94411710531497
20
61.945093
10
-132.26704210531497
20
62.557887000000001
10
-131.61767210531497
20
63.199966000000003
10
-130.99727010531498
20
63.870077000000009
10
-130.40704710531497
20
64.566913999999997
10
-129.84815110531497
20
65.289120999999994
10
-129.32167310531497
20
66.035289000000006
10
-128.82863810531495
20
66.803965000000005
10
-128.37000610531499
20
67.593650999999994
10
-127.94667210531497
20
68.402807999999993
10
-127.55946010531497
20
69.229859000000005
10
-127.20912510531497
20
70.073193000000003
10
-126.89635010531497
20
70.931166000000005
10
-126.62174410531497
20
71.802107000000007
10
-126.38584110531497
20
72.684318000000005
10
-126.18910310531497
20
73.576081000000002
10
-126.03191210531497
20
74.475656999999998
10
-125.91457410531497
20
75.381293999999997
10
-125.83731810531496
20
76.291227000000006
10
-125.80029510531497
20
77.203683000000012
10
-125.80357610531496
20
78.116883999999999
10
-125.84716010531496
20
79.029050000000012
10
-125.84859510531496
20
79.356063000000006
10
-125.80733110531497
20
79.680464999999998
10
-125.72407610531496
20
79.996705000000006
10
-125.60025410531496
20
80.299372000000005
10
-125.43798310531497
20
80.583287000000013
10
-125.24004110531496
20
80.843591000000004
10
-125.00981410531496
20
81.075829999999996
10
-124.75124310531497
20
81.276030000000006
10
-124.46875110531495
20
81.440765999999996
10
-124.16717310531497
20
81.567216999999999
10
-123.85166910531497
20
81.653221000000002
10
-123.52764210531497
20
81.697351999999995
10
-106.56994510531497
20
82.883155000000016
10
-106.31933010531496
20
82.922173000000015
10
-106.07887210531496
20
83.002858000000003
10
-105.85544510531497
20
83.122902999999994
10
-105.65543910531497
20
83.278875999999997
10
-105.48457810531497
20
83.466323000000017
10
-104.09897410531497
20
85.271965000000009
10
-103.88336410531495
20
85.517820000000015
10
-103.63750610531497
20
85.733427000000006
10
-103.36560810531496
20
85.915097000000017
10
-103.07232210531497
20
86.059719999999999
10
-102.76266710531496
20
86.164822999999998
10
-102.44194210531496
20
86.228605000000002
10
-102.11563610531496
20
86.250002000000009
10
-85.201885105314972
20
86.250002000000009
10
-84.875568105314983
20
86.228616000000002
10
-84.55483310531497
20
86.164821000000003
10
-84.245170105314955
20
86.059706000000006
10
-83.951877105314964
20
85.915072000000009
10
-83.679971105314976
20
85.733391999999995
10
-83.43410510531497
20
85.517775999999998
10
-83.218487105314978
20
85.271912000000015
10
-83.036805105314954
20
85.000008000000008
10
-82.892168105314965
20
84.706715000000003
10
-82.787051105314973
20
84.397053
10
-82.72325210531497
20
84.076318999999998
10
-82.701885105314972
20
83.750002000000009
10
-82.683418105314956
20
83.515349000000015
10
-82.628471105314958
20
83.286473999999998
10
-82.538396105314973
20
83.069012000000001
10
-82.415412105314971
20
82.868318000000002
10
-82.262547105314951
20
82.689334000000002
10
-82.08356510531496
20
82.536466000000019
10
-81.882873105314957
20
82.413480000000007
10
-81.665412105314971
20
82.323402000000016
10
-81.436538105314966
20
82.268450999999999
10
-81.201885105314943
20
82.25
10
-32.892866105314965
20
82.25
10
-32.702866105314961
20
82.25
10
-32.418236105314961
20
82.229642999999996
10
-32.13940110531496
20
82.168986000000004
10
-31.872036105314958
20
82.069264000000004
10
-31.621584105314962
20
81.932507000000001
10
-31.393145105314957
20
81.761499000000001
10
-31.19136710531496
20
81.559720999999996
10
-31.020359105314963
20
81.331282000000002
10
-30.88360210531496
20
81.080830000000006
0
LINE
5
101
100
AcDbEntity
8
0
100
AcDbLine
10
-33.574601105314962
20
0.54898599999999576
30
0
11
-33.89823510531496
21
0.59588400000000874
31
0
0
LINE
5
102
100
AcDbEntity
8
0
100
AcDbLine
10
-31.754846105314961
20
1.1402600000000085
30
0
11
-32.016868105314956
21
0.94460099999999159
31
0
0
LINE
5
103
100
AcDbEntity
8
0
100
AcDbLine
10
-31.021857105314965
20
2.206741000000001
30
0
11
-31.150947105314959
21
1.9062860000000015
31
0
0
LINE
5
104
100
AcDbEntity
8
0
100
AcDbLine
10
-32.016868105314956
20
0.94460099999999159
30
0
11
-32.302186105314959
21
0.78481699999999321
31
0
0
LINE
5
105
100
AcDbEntity
8
0
100
AcDbLine
10
-32.302186105314959
20
0.78481699999999321
30
0
11
-32.60591910531496
21
0.6636400000000009
31
0
0
LINE
5
106
100
AcDbEntity
8
0
100
AcDbLine
10
-32.922870105314963
20
0.58314499999999825
30
0
11
-33.247616105314961
21
0.54470699999999539
31
0
0
LINE
5
107
100
AcDbEntity
8
0
100
AcDbLine
10
-30.933087105314961
20
2.5214749999999952
30
0
11
-31.021857105314965
21
2.206741000000001
31
0
0
LINE
5
108
100
AcDbEntity
8
0
100
AcDbLine
10
-31.520604105314959
20
1.3684439999999931
30
0
11
-31.754846105314961
21
1.1402600000000085
31
0
0
LINE
5
109
100
AcDbEntity
8
0
100
AcDbLine
10
-31.150947105314959
20
1.9062860000000015
30
0
11
-31.318150105314963
21
1.6252509999999987
31
0
0
LINE
5
110
100
AcDbEntity
8
0
100
AcDbLine
10
-32.60591910531496
20
0.6636400000000009
30
0
11
-32.922870105314963
21
0.58314499999999825
31
0
0
LINE
5
111
100
AcDbEntity
8
0
100
AcDbLine
10
-33.247616105314961
20
0.54470699999999539
30
0
11
-33.574601105314962
21
0.54898599999999576
31
0
0
LINE
5
112
100
AcDbEntity
8
0
100
AcDbLine
10
-31.318150105314963
20
1.6252509999999987
30
0
11
-31.520604105314959
21
1.3684439999999931
31
0
0
ENDSEC
0
SECTION
2
OBJECTS
0
DICTIONARY
5
C
100
AcDbDictionary
3
ACAD_GROUP
350
D
3
ACAD_MLINESTYLE
350
17
0
DICTIONARY
5
D
100
AcDbDictionary
0
DICTIONARY
5
1A
330
C
100
AcDbDictionary
0
DICTIONARY
5
17
100
AcDbDictionary
0
ENDSEC
0
EOF
