<?xml version="1.0" encoding="UTF-8" standalone="no"?>
<svg
   version="1.1"
   width="136.5099mm"
   height="86.2239mm"
   viewBox="0 0 136.5099 86.223899"
   id="svg2110"
   sodipodi:docname="3435-outline-left.svg"
   inkscape:version="1.3 (0e150ed6c4, 2023-07-21)"
   xmlns:inkscape="http://www.inkscape.org/namespaces/inkscape"
   xmlns:sodipodi="http://sodipodi.sourceforge.net/DTD/sodipodi-0.dtd"
   xmlns="http://www.w3.org/2000/svg"
   xmlns:svg="http://www.w3.org/2000/svg"
   xmlns:rdf="http://www.w3.org/1999/02/22-rdf-syntax-ns#"
   xmlns:cc="http://creativecommons.org/ns#"
   xmlns:dc="http://purl.org/dc/elements/1.1/">
  <defs
     id="defs2110" />
  <sodipodi:namedview
     id="namedview2110"
     pagecolor="#ffffff"
     bordercolor="#000000"
     borderopacity="0.25"
     inkscape:showpageshadow="2"
     inkscape:pageopacity="0.0"
     inkscape:pagecheckerboard="0"
     inkscape:deskcolor="#d1d1d1"
     inkscape:document-units="mm"
     showgrid="false"
     inkscape:zoom="1.4458437"
     inkscape:cx="201.61239"
     inkscape:cy="62.593212"
     inkscape:window-width="2560"
     inkscape:window-height="1377"
     inkscape:window-x="-8"
     inkscape:window-y="-8"
     inkscape:window-maximized="1"
     inkscape:current-layer="svg2110" />
  <title
     id="title1">SVG Image created as 3435-single-pcb-F_Fab.svg date 2023/12/15 16:06:36 </title>
  <desc
     id="desc1">Image generated by PCBNEW </desc>
  <g
     style="fill:#000000;fill-opacity:1;stroke:#000000;stroke-linecap:round;stroke-linejoin:round;stroke-opacity:1"
     id="g1"
     transform="translate(-40.025,-63.9739)" />
  <g
     style="fill:#000000;fill-opacity:0;stroke:#000000;stroke-width:0;stroke-linecap:round;stroke-linejoin:round;stroke-opacity:1"
     id="g2"
     transform="translate(-40.025,-63.9739)" />
  <g
     style="fill:#000000;fill-opacity:0;stroke:#000000;stroke-width:0.05;stroke-linecap:round;stroke-linejoin:round;stroke-opacity:1"
     id="g500"
     transform="matrix(-1,0,0,1,176.5349,-63.9739)">
    <path
       d="m 95.0352,67.1398 -0.0328,0.0654"
       id="path2" />
    <path
       d="m 136.1282,68.5633 0.1222,0.0177"
       id="path3" />
    <path
       d="m 40.5232,130.1912 0.0748,-0.0983"
       id="path4" />
    <path
       d="m 40.7607,129.9089 0.0876,-0.0854"
       id="path5" />
    <path
       d="m 57.1408,103.6069 0.0168,0.0966"
       id="path6" />
    <path
       d="m 152.8248,130.7206 0.2306,-1.2125"
       id="path7" />
    <path
       d="m 162.26,116.4867 0.3885,-0.0898"
       id="path8" />
    <path
       d="m 130.8469,127.2666 0.0732,0.0227"
       id="path9" />
    <path
       d="m 151.4241,135.0766 -0.0975,0.0699"
       id="path10" />
    <path
       d="m 56.6232,125.9406 -0.0498,0.0387"
       id="path11" />
    <path
       d="m 151.6086,134.9233 -0.0904,0.0789"
       id="path12" />
    <path
       d="m 89.0808,129.4467 0.7353,-0.586"
       id="path13" />
    <path
       d="m 56.447,102.4518 0.0748,0.0645"
       id="path14" />
    <path
       d="m 131.0622,127.3458 0.0687,0.0335"
       id="path15" />
    <path
       d="m 115.8239,64.323 0.1217,0.0735"
       id="path16" />
    <path
       d="m 44.708,149.4286 -0.1083,-0.0593"
       id="path17" />
    <path
       d="m 138.9915,78.0807 -0.2319,-0.9418"
       id="path18" />
    <path
       d="m 43.8667,148.7224 -0.0714,-0.0988"
       id="path19" />
    <path
       d="m 115.9456,64.3965 0.1174,0.0803"
       id="path20" />
    <path
       d="m 56.7266,102.7314 0.0605,0.0776"
       id="path21" />
    <path
       d="m 94.3853,67.8222 -0.0654,0.0329"
       id="path22" />
    <path
       d="m 95.1716,66.6471 -0.0091,0.0733"
       id="path23" />
    <path
       d="M 140.337,81.6741 139.94,80.8043"
       id="path24" />
    <path
       d="m 43.3718,69.1443 0.0439,-0.0872"
       id="path25" />
    <path
       d="m 84.0902,136.1334 0.3916,-0.8412"
       id="path26" />
    <path
       d="m 114.5928,63.9989 0.1451,0.0042"
       id="path27" />
    <path
       d="m 94.5112,67.7469 -0.0621,0.0392"
       id="path28" />
    <path
       d="m 174.9651,95.8824 0.1128,0.0499"
       id="path29" />
    <path
       d="m 56.6622,102.6565 0.0644,0.0749"
       id="path30" />
    <path
       d="m 80.6883,145.8235 -0.1193,0.0269"
       id="path31" />
    <path
       d="M 95.9112,64.7311 96.001,64.6456"
       id="path32" />
    <path
       d="m 45.0814,101.9964 -0.0985,-0.007"
       id="path33" />
    <path
       d="m 174.1517,114.7782 -0.0445,0.1159"
       id="path34" />
    <path
       d="m 133.8265,133.3429 -0.127,-0.0211"
       id="path35" />
    <path
       d="M 56.7618,125.813 56.6712,125.9"
       id="path36" />
    <path
       d="m 44.6931,101.9386 -0.0942,-0.0262"
       id="path37" />
    <path
       d="M 44.6926,68.0592 44.788,68.0377"
       id="path38" />
    <path
       d="m 176.3521,97.3191 0.0397,0.1144"
       id="path39" />
    <path
       d="m 95.8257,64.821 0.0855,-0.0899"
       id="path40" />
    <path
       d="M 94.9662,67.269 94.927,67.3311"
       id="path41" />
    <path
       d="m 149.51,91.07 -0.8483,-0.4611"
       id="path42" />
    <path
       d="m 155.0824,92.9839 -0.9811,-0.2112"
       id="path43" />
    <path
       d="m 176.4772,97.7893 0.0169,0.1221"
       id="path44" />
    <path
       d="m 41.7908,129.273 0.1186,-0.0345"
       id="path45" />
    <path
       d="m 131.1309,127.3793 0.0668,0.037"
       id="path46" />
    <path
       d="m 158.4322,118.3157 0.2705,-0.2066"
       id="path47" />
    <path
       d="M 118.3733,67.1516 118.307,67.109"
       id="path48" />
    <path
       d="M 44.9829,101.9891 44.8852,101.977"
       id="path49" />
    <path
       d="m 131.6743,130.9003 0.002,-0.1261"
       id="path50" />
    <path
       d="m 138.3101,70.7277 0.0126,0.122"
       id="path51" />
    <path
       d="m 82.1589,144.7859 -0.0705,0.1003"
       id="path52" />
    <path
       d="m 150.9058,135.3777 -0.1121,0.045"
       id="path53" />
    <path
       d="m 44.2383,68.2345 0.0872,-0.0438"
       id="path54" />
    <path
       d="M 40.1045,132.1749 40.0817,132.053"
       id="path55" />
    <path
       d="m 57.1193,103.5114 0.0215,0.0955"
       id="path56" />
    <path
       d="m 151.8564,134.6613 -0.0785,0.0914"
       id="path57" />
    <path
       d="m 81.2562,145.6044 -0.109,0.0548"
       id="path58" />
    <path
       d="M 82.6764,141.5168 82.797,140.588"
       id="path59" />
    <path
       d="m 116.3869,64.7578 0.0975,0.1065"
       id="path60" />
    <path
       d="m 115.4371,64.1457 0.1324,0.0518"
       id="path61" />
    <path
       d="m 152.1254,134.2581 -0.0601,0.1062"
       id="path62" />
    <path
       d="m 147.8391,90.1105 -0.796,-0.5345"
       id="path63" />
    <path
       d="m 44.5984,68.0853 0.0942,-0.0261"
       id="path64" />
    <path
       d="m 157.6003,119.0558 0.2802,-0.2683"
       id="path65" />
    <path
       d="M 118.8881,67.346 118.8103,67.33"
       id="path66" />
    <path
       d="m 131.2626,127.4567 0.0628,0.0436"
       id="path67" />
    <path
       d="m 176.1411,96.8869 0.0603,0.1038"
       id="path68" />
    <path
       d="m 131.4444,127.5973 0.0558,0.0532"
       id="path69" />
    <path
       d="M 43.4736,147.9665 43.439,147.848"
       id="path70" />
    <path
       d="m 44.1993,149.0803 -0.0899,-0.0835"
       id="path71" />
    <path
       d="m 133.8265,133.3429 15.7452,2.2128"
       id="path72" />
    <path
       d="M 151.2796,91.8754 150.383,91.4926"
       id="path73" />
    <path
       d="m 57.1438,125.0985 -0.0151,0.0623"
       id="path74" />
    <path
       d="m 173.7333,115.5197 -0.0785,0.0914"
       id="path75" />
    <path
       d="m 82.2243,144.6824 -0.0654,0.1035"
       id="path76" />
    <path
       d="m 97.555,64.002 0.124,-0.0031"
       id="path77" />
    <path
       d="m 133.3346,133.2225 -0.1159,-0.0445"
       id="path78" />
    <path
       d="m 150.5626,135.4966 -0.1186,0.0285"
       id="path79" />
    <path
       d="m 172.4395,116.3549 -0.1186,0.0286"
       id="path80" />
    <path
       d="m 136.8354,68.7564 0.1105,0.0517"
       id="path81" />
    <path
       d="m 82.6034,142.4543 0.073,-0.9375"
       id="path82" />
    <path
       d="m 43.1801,69.9989 0.0024,-0.0992"
       id="path83" />
    <path
       d="m 174.2722,114.2864 2.2129,-15.7453"
       id="path84" />
    <path
       d="m 56.5219,102.5163 0.0719,0.0684"
       id="path85" />
    <path
       d="M 118.0659,66.9043 118.0123,66.845"
       id="path86" />
    <path
       d="m 43.2193,100.3909 -0.0168,-0.0967"
       id="path87" />
    <path
       d="M 96.7223,64.1892 96.836,64.1453"
       id="path88" />
    <path
       d="m 96.5017,64.2934 0.1091,-0.0548"
       id="path89" />
    <path
       d="m 40.2268,130.7308 0.0483,-0.1128"
       id="path90" />
    <path
       d="m 44.9824,68.0087 0.0984,-0.0074"
       id="path91" />
    <path
       d="m 171.8296,116.4385 -0.1261,-0.002"
       id="path92" />
    <path
       d="m 176.3071,97.207 0.045,0.1121"
       id="path93" />
    <path
       d="m 57.0272,103.2335 0.0352,0.091"
       id="path94" />
    <path
       d="m 118.8103,67.33 -0.0768,-0.0201"
       id="path95" />
    <path
       d="m 151.122,135.272 -0.1067,0.0554"
       id="path96" />
    <path
       d="m 159.8618,117.3825 0.3114,-0.1569"
       id="path97" />
    <path
       d="m 136.0048,68.5516 0.1234,0.0117"
       id="path98" />
    <path
       d="m 40.1844,130.8456 0.0424,-0.1148"
       id="path99" />
    <path
       d="m 43.633,68.7314 0.0644,-0.0749"
       id="path100" />
    <path
       d="m 136.4902,68.6341 0.1172,0.0352"
       id="path101" />
    <path
       d="M 174.3574,95.7175 156.0822,93.1491"
       id="path102" />
    <path
       d="m 152.3741,133.5549 -0.0272,0.1244"
       id="path103" />
    <path
       d="m 95.179,66.4989 -0.0019,0.0744"
       id="path104" />
    <path
       d="m 141.2466,83.3493 -0.4737,-0.8264"
       id="path105" />
    <path
       d="m 152.3953,133.428 0.2095,-1.4029"
       id="path106" />
    <path
       d="m 56.787,102.809 0.0565,0.0803"
       id="path107" />
    <path
       d="m 44.2935,149.1595 -0.0942,-0.0792"
       id="path108" />
    <path
       d="m 82.579,143.3989 0.0244,-0.9446"
       id="path109" />
    <path
       d="M 69.2398,145.8989 H 80.079"
       id="path110" />
    <path
       d="m 171.5764,116.4288 -0.1278,-0.0147"
       id="path111" />
    <path
       d="m 40.1168,131.0802 0.0309,-0.1181"
       id="path112" />
    <path
       d="m 45.4001,149.6658 -0.1193,-0.0252"
       id="path113" />
    <path
       d="m 176.4259,97.5501 0.0286,0.1187"
       id="path114" />
    <path
       d="m 96.4961,125.6936 0.9085,-0.1965"
       id="path115" />
    <path
       d="m 138.2012,70.2522 0.0359,0.1166"
       id="path116" />
    <path
       d="m 152.1805,134.1485 -0.0551,0.1096"
       id="path117" />
    <path
       d="m 67.9432,145.9159 1.2966,-0.017"
       id="path118" />
    <path
       d="m 133.2187,133.178 -0.1127,-0.0499"
       id="path119" />
    <path
       d="m 44.5997,149.3693 -0.1056,-0.065"
       id="path120" />
    <path
       d="m 152.0003,134.467 -0.0697,0.099"
       id="path121" />
    <path
       d="m 43.2025,100.2942 -0.0121,-0.0976"
       id="path122" />
    <path
       d="m 45.1801,67.9989 1.1548,0.0039"
       id="path123" />
    <path
       d="M 95.0023,67.2052 94.9662,67.269"
       id="path124" />
    <path
       d="m 138.3311,74.2295 -0.0505,-0.9938"
       id="path125" />
    <path
       d="m 87.6991,130.7351 0.6741,-0.6621"
       id="path126" />
    <path
       d="m 154.7648,123.5678 0.2035,-0.482"
       id="path127" />
    <path
       d="m 92.1725,127.3499 0.8297,-0.4191"
       id="path128" />
    <path
       d="m 95.2274,66.0089 0.027,-0.1194"
       id="path129" />
    <path
       d="m 156.8038,119.9481 0.2583,-0.3126"
       id="path130" />
    <path
       d="m 100.1866,125.1883 0.9403,-0.007"
       id="path131" />
    <path
       d="m 91.3637,127.8116 0.8088,-0.4617"
       id="path132" />
    <path
       d="m 56.1184,126.2092 -0.0632,0.0178"
       id="path133" />
    <path
       d="m 45.1806,101.9989 -0.0992,-0.003"
       id="path134" />
    <path
       d="m 56.8447,125.7189 -0.0829,0.0941"
       id="path135" />
    <path
       d="m 138.1126,70.025 0.0471,0.1126"
       id="path136" />
    <path
       d="m 40.0917,131.1995 0.0251,-0.1193"
       id="path137" />
    <path
       d="M 44.8186,149.4824 44.708,149.4286"
       id="path138" />
    <path
       d="m 94.7909,67.5057 -0.0513,0.0539"
       id="path139" />
    <path
       d="m 43.8377,68.5163 0.0749,-0.0645"
       id="path140" />
    <path
       d="m 157.0621,119.6355 0.2655,-0.2972"
       id="path141" />
    <path
       d="m 175.7695,96.4175 0.0832,0.0866"
       id="path142" />
    <path
       d="m 156.3076,120.6224 0.2447,-0.3455"
       id="path143" />
    <path
       d="m 131.8768,131.8534 -0.0451,-0.1121"
       id="path144" />
    <path
       d="m 138.2916,70.6067 0.0185,0.121"
       id="path145" />
    <path
       d="m 175.6821,96.3348 0.0874,0.0827"
       id="path146" />
    <path
       d="m 163.4649,116.2451 0.386,-0.0563"
       id="path147" />
    <path
       d="m 83.1785,138.7631 0.2594,-0.8926"
       id="path148" />
    <path
       d="m 155.8373,121.3665 0.232,-0.3811"
       id="path149" />
    <path
       d="m 44.8852,101.977 -0.0966,-0.0169"
       id="path150" />
    <path
       d="M 40.0545,131.8081 40.05,131.6855"
       id="path151" />
    <path
       d="m 174.7304,95.799 0.1188,0.0389"
       id="path152" />
    <path
       d="m 45.7636,149.706 -0.1218,-0.007"
       id="path153" />
    <path
       d="m 167.4171,116.0395 0.5171,0.0225"
       id="path154" />
    <path
       d="m 142.8842,85.682 -0.581,-0.7519"
       id="path155" />
    <path
       d="M 95.287,65.7718 95.3254,65.656"
       id="path156" />
    <path
       d="m 80.9219,145.7525 -0.1158,0.0383"
       id="path157" />
    <path
       d="m 56.5219,126.0159 -0.0531,0.0345"
       id="path158" />
    <path
       d="m 43.2972,69.3245 0.035,-0.091"
       id="path159" />
    <path
       d="m 155.1772,122.6254 0.2143,-0.4396"
       id="path160" />
    <path
       d="m 131.5002,127.6505 0.0533,0.0562"
       id="path161" />
    <path
       d="m 150.6793,135.4624 -0.1167,0.0342"
       id="path162" />
    <path
       d="m 55.8539,102.116 0.091,0.0351"
       id="path163" />
    <path
       d="M 57.1287,125.1608 57.111,125.222"
       id="path164" />
    <path
       d="m 64.0656,146.1701 1.2899,-0.1186"
       id="path165" />
    <path
       d="m 43.267,100.5806 -0.0262,-0.0942"
       id="path166" />
    <path
       d="m 174.2722,114.2864 -0.0212,0.1269"
       id="path167" />
    <path
       d="m 166.4352,116.0233 0.4825,0.003"
       id="path168" />
    <path
       d="m 94.6296,67.6592 -0.0581,0.0454"
       id="path169" />
    <path
       d="m 56.4141,126.0827 -0.0562,0.0301"
       id="path170" />
    <path
       d="M 44.1536,101.7152 44.071,101.6629"
       id="path171" />
    <path
       d="m 82.3888,144.3556 -0.0495,0.1115"
       id="path172" />
    <path
       d="m 46.1312,149.6924 -0.1226,0.0106"
       id="path173" />
    <path
       d="m 132.108,132.2742 -0.0652,-0.1007"
       id="path174" />
    <path
       d="m 57.179,124.775 -0.0014,0.0661"
       id="path175" />
    <path
       d="m 41.5608,129.359 0.1138,-0.0458"
       id="path176" />
    <path
       d="m 115.024,64.0363 0.14,0.0287"
       id="path177" />
    <path
       d="m 136.2504,68.581 0.1207,0.0237"
       id="path178" />
    <path
       d="m 98.3237,125.347 0.9279,-0.1031"
       id="path179" />
    <path
       d="m 97.4046,125.4971 0.9191,-0.1501"
       id="path180" />
    <path
       d="m 81.0357,145.7086 -0.1138,0.0439"
       id="path181" />
    <path
       d="m 137.9387,69.7019 0.0633,0.1051"
       id="path182" />
    <path
       d="m 139.2661,79.0063 -0.2746,-0.9256"
       id="path183" />
    <path
       d="m 137.7172,69.4053 0.079,0.0956"
       id="path184" />
    <path
       d="m 55.1796,101.9989 0.099,0.002"
       id="path185" />
    <path
       d="m 131.9022,128.3831 0.0148,0.075"
       id="path186" />
    <path
       d="m 118.0123,66.845 -0.0506,-0.0624"
       id="path187" />
    <path
       d="m 45.5205,149.6851 -0.1204,-0.0193"
       id="path188" />
    <path
       d="m 61.4971,146.5082 1.2822,-0.1859"
       id="path189" />
    <path
       d="m 94.6857,67.6108 -0.0561,0.0484"
       id="path190" />
    <path
       d="m 139.5826,79.9146 -0.3165,-0.9083"
       id="path191" />
    <path
       d="m 150.2013,135.5647 -0.1236,0.0108"
       id="path192" />
    <path
       d="m 173.5721,115.6985 -0.0866,0.0831"
       id="path193" />
    <path
       d="m 96.0946,64.5651 0.097,-0.0756"
       id="path194" />
    <path
       d="m 133.5752,133.2945 -0.1217,-0.0331"
       id="path195" />
    <path
       d="M 94.3199,67.8551 94.253,67.8847"
       id="path196" />
    <path
       d="m 93.973,67.9698 -0.0725,0.0127"
       id="path197" />
    <path
       d="M 55.9909,126.2423 42.03,129.2097"
       id="path198" />
    <path
       d="m 161.5197,116.6948 0.3641,-0.1088"
       id="path199" />
    <path
       d="m 43.2189,69.6069 0.0214,-0.0955"
       id="path200" />
    <path
       d="m 116.284,64.6577 0.1029,0.1001"
       id="path201" />
    <path
       d="m 46.3755,149.653 -0.1219,0.0228"
       id="path202" />
    <path
       d="m 133.6995,133.3218 -0.1243,-0.0273"
       id="path203" />
    <path
       d="m 102.0709,125.2225 28.472,1.991"
       id="path204" />
    <path
       d="m 131.5535,127.7067 0.0505,0.0591"
       id="path205" />
    <path
       d="m 96.3954,64.3535 0.1063,-0.0601"
       id="path206" />
    <path
       d="m 165.9687,116.0292 0.4666,-0.006"
       id="path207" />
    <path
       d="m 43.3322,69.2335 0.0396,-0.0892"
       id="path208" />
    <path
       d="m 137.7962,69.5009 0.0738,0.0989"
       id="path209" />
    <path
       d="m 57.0907,125.2823 -0.0227,0.0592"
       id="path210" />
    <path
       d="m 57.068,125.3415 -0.0251,0.0579"
       id="path211" />
    <path
       d="m 145.5353,88.4039 -0.7099,-0.6351"
       id="path212" />
    <path
       d="m 43.5596,148.1966 -0.0458,-0.1138"
       id="path213" />
    <path
       d="m 131.927,131.9629 -0.0502,-0.1095"
       id="path214" />
    <path
       d="m 160.4942,117.0784 0.3312,-0.1375"
       id="path215" />
    <path
       d="m 176.2014,96.9907 0.0554,0.1068"
       id="path216" />
    <path
       d="M 43.4638,68.972 43.516,68.8893"
       id="path217" />
    <path
       d="M 56.3578,126.1128 56.3,126.1405"
       id="path218" />
    <path
       d="m 118.1814,67.0133 -0.0592,-0.0529"
       id="path219" />
    <path
       d="m 95.0911,67.0047 -0.0262,0.0682"
       id="path220" />
    <path
       d="m 43.7953,148.6236 -0.0666,-0.1021"
       id="path221" />
    <path
       d="m 44.4147,68.1511 0.091,-0.0351"
       id="path222" />
    <path
       d="m 176.5095,98.1601 -0.002,0.1261"
       id="path223" />
    <path
       d="m 43.9902,68.3913 0.0803,-0.0564"
       id="path224" />
    <path
       d="m 95.3254,65.656 0.0439,-0.1138"
       id="path225" />
    <path
       d="m 118.5121,67.2262 -0.0703,-0.0355"
       id="path226" />
    <path
       d="m 82.0129,144.9833 -0.0806,0.0935"
       id="path227" />
    <path
       d="m 138.4284,75.2121 -0.0973,-0.9826"
       id="path228" />
    <path
       d="m 40.0515,131.5631 0.0074,-0.1219"
       id="path229" />
    <path
       d="m 94.1152,67.9341 -0.0706,0.0196"
       id="path230" />
    <path
       d="m 133.4535,133.2614 -0.1189,-0.0389"
       id="path231" />
    <path
       d="m 151.2259,135.2117 -0.1039,0.0603"
       id="path232" />
    <path
       d="m 132.0428,132.1735 -0.0604,-0.1039"
       id="path233" />
    <path
       d="M 94.0446,67.9537 93.973,67.9698"
       id="path234" />
    <path
       d="m 40.8483,129.8235 0.0915,-0.081"
       id="path235" />
    <path
       d="m 81.1472,145.6592 -0.1115,0.0494"
       id="path236" />
    <path
       d="m 157.3276,119.3383 0.2728,-0.2825"
       id="path237" />
    <path
       d="m 82.5036,144.0083 -0.0327,0.1177"
       id="path238" />
    <path
       d="m 173.3951,115.8605 -0.0941,0.0745"
       id="path239" />
    <path
       d="m 130.7725,127.2475 0.0744,0.0191"
       id="path240" />
    <path
       d="m 55.5715,102.0377 0.0955,0.0215"
       id="path241" />
    <path
       d="m 40.0589,131.4412 0.0135,-0.1213"
       id="path242" />
    <path
       d="m 41.1338,129.5947 0.1022,-0.0666"
       id="path243" />
    <path
       d="m 43.6335,101.2664 -0.0606,-0.0776"
       id="path244" />
    <path
       d="m 114.8817,64.0156 0.1422,0.0207"
       id="path245" />
    <path
       d="m 156.0693,120.9854 0.2383,-0.363"
       id="path246" />
    <path
       d="m 56.0341,102.1907 0.0872,0.0438"
       id="path247" />
    <path
       d="m 131.7294,131.3916 -0.0228,-0.1205"
       id="path248" />
    <path
       d="m 97.0697,64.0743 0.1194,-0.0269"
       id="path249" />
    <path
       d="m 43.6671,148.4161 -0.0564,-0.1083"
       id="path250" />
    <path
       d="m 43.6979,101.3412 -0.0644,-0.0748"
       id="path251" />
    <path
       d="m 43.2665,69.4172 0.0307,-0.0927"
       id="path252" />
    <path
       d="m 56.6712,125.9 -0.048,0.0406"
       id="path253" />
    <path
       d="m 176.5079,98.2862 -0.008,0.127"
       id="path254" />
    <path
       d="m 137.1586,68.9275 0.1019,0.0674"
       id="path255" />
    <path
       d="m 138.278,72.2321 0.0463,-1.0122"
       id="path256" />
    <path
       d="m 131.6841,130.6471 0.0147,-0.1278"
       id="path257" />
    <path
       d="m 154.9683,123.0858 0.2089,-0.4604"
       id="path258" />
    <path
       d="m 149.8266,135.5785 -0.1271,-0.008"
       id="path259" />
    <path
       d="m 151.5182,135.0022 -0.0941,0.0744"
       id="path260" />
    <path
       d="m 174.4843,95.7386 0.1244,0.0273"
       id="path261" />
    <path
       d="m 152.3469,133.6793 -0.0331,0.1217"
       id="path262" />
    <path
       d="m 57.0155,125.4562 -0.0298,0.0554"
       id="path263" />
    <path
       d="m 56.2063,102.2826 0.0828,0.0523"
       id="path264" />
    <path
       d="m 56.8435,102.8893 0.0523,0.0827"
       id="path265" />
    <path
       d="m 97.1891,64.0474 0.1207,-0.0211"
       id="path266" />
    <path
       d="m 131.3254,127.5003 0.0607,0.0469"
       id="path267" />
    <path
       d="m 81.4661,145.4789 -0.1035,0.0653"
       id="path268" />
    <path
       d="m 165.0809,116.0677 0.4366,-0.0236"
       id="path269" />
    <path
       d="m 137.87,69.5998 0.0687,0.1021"
       id="path270" />
    <path
       d="m 43.5137,148.0828 -0.0401,-0.1163"
       id="path271" />
    <path
       d="m 115.5694,64.1975 0.129,0.0592"
       id="path272" />
    <path
       d="m 172.5562,116.3208 -0.1167,0.0341"
       id="path273" />
    <path
       d="M 136.0048,68.5515 119.0471,67.3657"
       id="path274" />
    <path
       d="m 95.4736,65.3217 0.06,-0.1064"
       id="path275" />
    <path
       d="m 151.0153,135.3274 -0.1095,0.0503"
       id="path276" />
    <path
       d="m 80.4481,145.8715 -0.122,0.0152"
       id="path277" />
    <path
       d="m 40.05,131.6855 0.0015,-0.1224"
       id="path278" />
    <path
       d="m 82.5305,143.8889 -0.0269,0.1194"
       id="path279" />
    <path
       d="m 44.4941,149.3043 -0.1023,-0.0701"
       id="path280" />
    <path
       d="M 45.1627,149.6097 45.0462,149.573"
       id="path281" />
    <path
       d="m 101.1269,125.181 0.944,0.0415"
       id="path282" />
    <path
       d="M 43.1904,100.1966 43.183,100.0981"
       id="path283" />
    <path
       d="m 80.203,145.8958 -0.124,0.003"
       id="path284" />
    <path
       d="m 57.1662,124.9713 -0.0099,0.064"
       id="path285" />
    <path
       d="m 94.7176,126.2232 0.8822,-0.2874"
       id="path286" />
    <path
       d="M 55.5749,68.0028 93.679,67.9989"
       id="path287" />
    <path
       d="m 57.1563,125.0353 -0.0125,0.0632"
       id="path288" />
    <path
       d="m 133.1059,133.1281 -0.1095,-0.0551"
       id="path289" />
    <path
       d="m 172.0782,116.4231 -0.1236,0.0108"
       id="path290" />
    <path
       d="m 176.4545,97.6688 0.0227,0.1205"
       id="path291" />
    <path
       d="M 143.4989,86.4066 142.8842,85.682"
       id="path292" />
    <path
       d="m 153.2967,128.381 0.2524,-1.0479"
       id="path293" />
    <path
       d="m 86.4662,132.1495 0.597,-0.7217"
       id="path294" />
    <path
       d="m 57.177,103.8997 0.0025,0.0992"
       id="path295" />
    <path
       d="m 88.3732,130.073 0.7075,-0.6263"
       id="path296" />
    <path
       d="m 174.6087,95.7659 0.1217,0.0331"
       id="path297" />
    <path
       d="m 43.2403,69.5114 0.0262,-0.0942"
       id="path298" />
    <path
       d="m 175.4954,96.1821 0.0953,0.0742"
       id="path299" />
    <path
       d="m 131.935,128.6101 0.003,0.0768"
       id="path300" />
    <path
       d="m 62.7793,146.3223 1.2864,-0.1522"
       id="path301" />
    <path
       d="m 56.0552,126.227 -0.0643,0.0152"
       id="path302" />
    <path
       d="m 44.024,148.9092 -0.081,-0.0915"
       id="path303" />
    <path
       d="m 57.1698,103.8012 0.0073,0.0985"
       id="path304" />
    <path
       d="m 94.4491,67.7861 -0.0638,0.0361"
       id="path305" />
    <path
       d="m 138.7596,77.1389 -0.188,-0.9566"
       id="path306" />
    <path
       d="m 173.8772,115.3253 -0.0697,0.0991"
       id="path307" />
    <path
       d="m 57.1732,124.9066 -0.007,0.0647"
       id="path308" />
    <path
       d="m 57.0624,103.3245 0.0307,0.0927"
       id="path309" />
    <path
       d="m 151.6953,134.8401 -0.0867,0.0832"
       id="path310" />
    <path
       d="m 165.5175,116.0441 0.4512,-0.0149"
       id="path311" />
    <path
       d="m 116.1759,64.564 0.1082,0.0937"
       id="path312" />
    <path
       d="m 131.604,127.7658 0.0473,0.0617"
       id="path313" />
    <path
       d="m 57.1795,103.9989 -5e-4,20.7761"
       id="path314" />
    <path
       d="m 56.4688,126.0504 -0.0547,0.0323"
       id="path315" />
    <path
       d="m 56.2891,102.3349 0.0804,0.0564"
       id="path316" />
    <path
       d="m 55.4749,102.0208 0.0966,0.0169"
       id="path317" />
    <path
       d="m 151.9306,134.566 -0.0742,0.0953"
       id="path318" />
    <path
       d="m 55.667,102.0592 0.0942,0.0261"
       id="path319" />
    <path
       d="m 44.2388,101.7633 -0.0851,-0.0481"
       id="path320" />
    <path
       d="m 40.2751,130.618 0.0537,-0.1106"
       id="path321" />
    <path
       d="m 43.4102,147.7274 0.5197,2.4454"
       id="path322" />
    <path
       d="m 81.9322,145.0768 -0.0855,0.0899"
       id="path323" />
    <path
       d="m 114.7379,64.0031 0.1438,0.0125"
       id="path324" />
    <path
       d="m 137.6335,69.3138 0.0837,0.0915"
       id="path325" />
    <path
       d="m 146.2749,89.0067 -0.7396,-0.6028"
       id="path326" />
    <path
       d="m 150.0777,135.5755 -0.125,0.005"
       id="path327" />
    <path
       d="m 43.4642,101.0257 -0.048,-0.085"
       id="path328" />
    <path
       d="m 40.0724,131.3199 0.0193,-0.1204"
       id="path329" />
    <path
       d="m 118.7334,67.3099 -0.0753,-0.0241"
       id="path330" />
    <path
       d="m 173.301,115.935 -0.0975,0.0699"
       id="path331" />
    <path
       d="m 138.3227,70.8497 0.007,0.1228"
       id="path332" />
    <path
       d="m 148.6617,90.6089 -0.8226,-0.4984"
       id="path333" />
    <path
       d="M 96.1916,64.4895 96.292,64.4189"
       id="path334" />
    <path
       d="m 43.1806,99.9989 -5e-4,-30"
       id="path335" />
    <path
       d="m 56.5938,102.5847 0.0684,0.0718"
       id="path336" />
    <path
       d="m 115.6984,64.2567 0.1256,0.0663"
       id="path337" />
    <path
       d="m 43.9129,101.546 -0.0747,-0.0645"
       id="path338" />
    <path
       d="M 95.5336,65.2153 95.599,65.1119"
       id="path339" />
    <path
       d="m 137.3591,69.0673 0.0952,0.0774"
       id="path340" />
    <path
       d="m 99.2516,125.2439 0.935,-0.0556"
       id="path341" />
    <path
       d="m 159.5595,117.5493 0.3023,-0.1668"
       id="path342" />
    <path
       d="m 44.3255,68.1907 0.0892,-0.0396"
       id="path343" />
    <path
       d="m 93.8511,126.5551 0.8665,-0.3319"
       id="path344" />
    <path
       d="m 40.598,130.0929 0.0792,-0.0941"
       id="path345" />
    <path
       d="m 160.8254,116.9409 0.3416,-0.1279"
       id="path346" />
    <path
       d="m 81.3626,145.5442 -0.1064,0.0602"
       id="path347" />
    <path
       d="m 44.326,101.8071 -0.0872,-0.0438"
       id="path348" />
    <path
       d="m 162.6485,116.3969 0.4015,-0.0806"
       id="path349" />
    <path
       d="m 55.7612,102.0853 0.0927,0.0307"
       id="path350" />
    <path
       d="m 118.307,67.109 -0.064,-0.0462"
       id="path351" />
    <path
       d="M 43.7663,101.4131 43.698,101.3412"
       id="path352" />
    <path
       d="m 45.0808,68.0013 0.0993,-0.0024"
       id="path353" />
    <path
       d="m 118.6581,67.2858 -0.0738,-0.0279"
       id="path354" />
    <path
       d="m 56.8959,102.972 0.0481,0.0851"
       id="path355" />
    <path
       d="m 172.7826,116.2361 -0.112,0.045"
       id="path356" />
    <path
       d="m 45.6418,149.6985 -0.1213,-0.0134"
       id="path357" />
    <path
       d="m 84.4817,135.2922 0.4341,-0.8207"
       id="path358" />
    <path
       d="m 147.0431,89.576 -0.7682,-0.5693"
       id="path359" />
    <path
       d="m 131.8837,128.309 0.0185,0.0741"
       id="path360" />
    <path
       d="m 94.253,67.8847 -0.0683,0.0264"
       id="path361" />
    <path
       d="m 131.6952,127.8913 0.0405,0.0657"
       id="path362" />
    <path
       d="m 163.05,116.3163 0.4149,-0.0712"
       id="path363" />
    <path
       d="m 43.93,150.1728 2.4455,-0.5198"
       id="path364" />
    <path
       d="m 95.1912,66.2518 0.0152,-0.1221"
       id="path365" />
    <path
       d="M 97.4319,64.0111 97.555,64.002"
       id="path366" />
    <path
       d="m 137.4543,69.1447 0.0915,0.0822"
       id="path367" />
    <path
       d="m 115.164,64.065 0.1379,0.0365"
       id="path368" />
    <path
       d="m 43.8382,101.4815 -0.0719,-0.0684"
       id="path369" />
    <path
       d="m 175.0779,95.9323 0.1096,0.0551"
       id="path370" />
    <path
       d="M 43.2977,100.6732 43.267,100.5806"
       id="path371" />
    <path
       d="m 43.5729,101.1888 -0.0564,-0.0803"
       id="path372" />
    <path
       d="m 131.7725,128.0244 0.0333,0.0691"
       id="path373" />
    <path
       d="m 175.3964,96.1125 0.099,0.0696"
       id="path374" />
    <path
       d="m 43.4162,100.9407 -0.0439,-0.0872"
       id="path375" />
    <path
       d="m 167.9342,116.062 1.0898,0.0751"
       id="path376" />
    <path
       d="m 175.1875,95.9874 0.1062,0.0601"
       id="path377" />
    <path
       d="m 153.549,127.3331 0.2633,-0.9754"
       id="path378" />
    <path
       d="m 131.7921,131.6269 -0.0342,-0.1166"
       id="path379" />
    <path
       d="m 152.3138,133.801 -0.039,0.1189"
       id="path380" />
    <path
       d="m 152.0653,134.3643 -0.065,0.1027"
       id="path381" />
    <path
       d="m 96.292,64.4189 0.1034,-0.0654"
       id="path382" />
    <path
       d="m 174.0023,115.1165 -0.0601,0.1062"
       id="path383" />
    <path
       d="m 90.5777,128.3154 0.786,-0.5038"
       id="path384" />
    <path
       d="m 158.9804,117.9125 0.2855,-0.1866"
       id="path385" />
    <path
       d="m 95.1499,66.7929 -0.0161,0.0716"
       id="path386" />
    <path
       d="m 82.9646,139.6695 0.2139,-0.9064"
       id="path387" />
    <path
       d="m 40.1045,132.1749 3.3058,15.5525"
       id="path388" />
    <path
       d="m 57.111,125.222 -0.0203,0.0603"
       id="path389" />
    <path
       d="m 43.9431,148.8177 -0.0764,-0.0953"
       id="path390" />
    <path
       d="m 156.5523,120.2769 0.2515,-0.3288"
       id="path391" />
    <path
       d="m 152.6048,132.0251 0.22,-1.3045"
       id="path392" />
    <path
       d="M 140.7729,82.5229 140.337,81.6741"
       id="path393" />
    <path
       d="m 142.3032,84.9301 -0.5462,-0.778"
       id="path394" />
    <path
       d="m 152.3953,133.428 -0.0212,0.1269"
       id="path395" />
    <path
       d="m 40.3882,130.3991 0.065,-0.1056"
       id="path396" />
    <path
       d="m 131.9279,128.5338 0.007,0.0763"
       id="path397" />
    <path
       d="m 87.0632,131.4278 0.636,-0.6927"
       id="path398" />
    <path
       d="m 56.9857,125.5116 -0.0662,0.1067"
       id="path399" />
    <path
       d="m 138.002,69.807 0.058,0.1077"
       id="path400" />
    <path
       d="m 82.0884,144.8862 -0.0755,0.0971"
       id="path401" />
    <path
       d="M 43.1899,69.8012 43.202,69.7036"
       id="path402" />
    <path
       d="m 172.3209,116.3835 -0.1205,0.0227"
       id="path403" />
    <path
       d="m 46.0086,149.703 -0.1226,0.005"
       id="path404" />
    <path
       d="m 131.679,131.0253 -0.005,-0.125"
       id="path405" />
    <path
       d="m 57.093,103.4172 0.0262,0.0942"
       id="path406" />
    <path
       d="m 118.4418,67.1907 -0.0685,-0.0391"
       id="path407" />
    <path
       d="M 150.383,91.4926 149.51,91.07"
       id="path408" />
    <path
       d="m 131.8354,128.164 0.026,0.0719"
       id="path409" />
    <path
       d="m 41.3413,129.4665 0.1084,-0.0564"
       id="path410" />
    <path
       d="m 131.9325,128.8413 -0.009,0.0773"
       id="path411" />
    <path
       d="m 43.439,147.848 -0.0288,-0.1206"
       id="path412" />
    <path
       d="M 96.836,64.1453 96.9519,64.107"
       id="path413" />
    <path
       d="m 95.3693,65.5422 0.0494,-0.1115"
       id="path414" />
    <path
       d="m 131.9373,128.764 -0.005,0.0773"
       id="path415" />
    <path
       d="m 176.4997,98.4132 -0.0146,0.1279"
       id="path416" />
    <path
       d="m 82.5516,143.7681 -0.0211,0.1208"
       id="path417" />
    <path
       d="m 46.3755,149.653 12.5727,-2.6724"
       id="path418" />
    <path
       d="m 40.065,131.9306 -0.0106,-0.1225"
       id="path419" />
    <path
       d="m 158.1685,118.5325 0.2637,-0.2168"
       id="path420" />
    <path
       d="m 81.6634,145.3327 -0.0971,0.0756"
       id="path421" />
    <path
       d="m 155.6115,121.7664 0.2258,-0.3999"
       id="path422" />
    <path
       d="m 131.9237,128.9186 -0.225,1.6006"
       id="path423" />
    <path
       d="m 80.8061,145.7908 -0.1178,0.0327"
       id="path424" />
    <path
       d="m 44.3918,149.2342 -0.0983,-0.0747"
       id="path425" />
    <path
       d="M 43.516,68.8893 43.5724,68.809"
       id="path426" />
    <path
       d="m 131.8614,128.2359 0.0223,0.0731"
       id="path427" />
    <path
       d="m 153.8123,126.3577 0.2745,-0.9093"
       id="path428" />
    <path
       d="m 93.0022,126.9308 0.8489,-0.3757"
       id="path429" />
    <path
       d="m 130.6969,127.2323 0.0756,0.0152"
       id="path430" />
    <path
       d="m 170.1935,116.2538 1.2551,0.1603"
       id="path431" />
    <path
       d="m 158.7027,118.1091 0.2777,-0.1966"
       id="path432" />
    <path
       d="m 152.1989,92.2172 -0.9193,-0.3418"
       id="path433" />
    <path
       d="m 156.0822,93.1491 -0.9998,-0.1652"
       id="path434" />
    <path
       d="m 56.944,103.0571 0.0438,0.0872"
       id="path435" />
    <path
       d="m 82.5668,143.646 -0.0151,0.1221"
       id="path436" />
    <path
       d="m 82.4326,144.2418 -0.0438,0.1138"
       id="path437" />
    <path
       d="m 172.2004,116.4062 -0.1222,0.0169"
       id="path438" />
    <path
       d="m 131.6513,127.8275 0.0439,0.0638"
       id="path439" />
    <path
       d="m 174.251,114.4133 -0.0272,0.1244"
       id="path440" />
    <path
       d="m 174.1906,114.6594 -0.0389,0.1188"
       id="path441" />
    <path
       d="m 43.7659,68.5847 0.0718,-0.0684"
       id="path442" />
    <path
       d="m 82.2845,144.5761 -0.0602,0.1063"
       id="path443" />
    <path
       d="m 94.7396,67.5596 -0.0539,0.0512"
       id="path444" />
    <path
       d="m 58.9482,146.9806 1.2717,-0.253"
       id="path445" />
    <path
       d="m 137.2605,68.9949 0.0986,0.0724"
       id="path446" />
    <path
       d="m 131.676,130.7742 0.008,-0.1271"
       id="path447" />
    <path
       d="m 81.8468,145.1667 -0.0898,0.0854"
       id="path448" />
    <path
       d="m 161.8838,116.586 0.3763,-0.0993"
       id="path449" />
    <path
       d="m 155.3915,122.1858 0.22,-0.4194"
       id="path450" />
    <path
       d="m 173.9422,115.2227 -0.065,0.1026"
       id="path451" />
    <path
       d="m 45.0462,149.573 -0.1148,-0.0425"
       id="path452" />
    <path
       d="m 40.1478,130.9621 0.0367,-0.1165"
       id="path453" />
    <path
       d="m 116.063,64.4768 0.1129,0.0872"
       id="path454" />
    <path
       d="m 118.243,67.0628 -0.0616,-0.0495"
       id="path455" />
    <path
       d="m 97.3098,64.0263 0.1221,-0.0152"
       id="path456" />
    <path
       d="m 96.6108,64.2386 0.1116,-0.0494"
       id="path457" />
    <path
       d="m 175.8527,96.5041 0.0788,0.0905"
       id="path458" />
    <path
       d="m 95.1337,66.8645 -0.0196,0.0706"
       id="path459" />
    <path
       d="m 41.236,129.5281 0.1053,-0.0616"
       id="path460" />
    <path
       d="m 60.2198,146.7276 1.2773,-0.2194"
       id="path461" />
    <path
       d="m 43.1825,69.8997 0.0074,-0.0985"
       id="path462" />
    <path
       d="m 132.9964,133.073 -0.1062,-0.0601"
       id="path463" />
    <path
       d="m 94.5715,67.7046 -0.0603,0.0423"
       id="path464" />
    <path
       d="m 45.1806,101.9989 h 9.999"
       id="path465" />
    <path
       d="m 55.3772,102.0087 0.0977,0.0121"
       id="path466" />
    <path
       d="m 130.6203,127.2209 0.0766,0.0114"
       id="path467" />
    <path
       d="m 161.167,116.813 0.3528,-0.1182"
       id="path468" />
    <path
       d="m 174.1072,114.8941 -0.0498,0.1128"
       id="path469" />
    <path
       d="m 150.7937,135.4227 -0.1144,0.0397"
       id="path470" />
    <path
       d="m 56.9195,125.6183 -0.0748,0.1006"
       id="path471" />
    <path
       d="m 57.0429,125.3994 -0.0274,0.0568"
       id="path472" />
    <path
       d="m 80.569,145.8504 -0.1209,0.0211"
       id="path473" />
    <path
       d="m 132.5931,132.804 -0.0913,-0.0785"
       id="path474" />
    <path
       d="m 132.5018,132.7255 -0.0874,-0.0826"
       id="path475" />
    <path
       d="m 96.001,64.6456 0.0936,-0.0805"
       id="path476" />
    <path
       d="m 150.3235,135.5479 -0.1222,0.0168"
       id="path477" />
    <path
       d="m 83.4379,137.8705 0.3041,-0.8771"
       id="path478" />
    <path
       d="m 95.1141,66.9351 -0.023,0.0696"
       id="path479" />
    <path
       d="m 41.035,129.6662 0.0988,-0.0715"
       id="path480" />
    <path
       d="m 154.5663,124.0719 0.1985,-0.5041"
       id="path481" />
    <path
       d="m 40.9398,129.7425 0.0952,-0.0763"
       id="path482" />
    <path
       d="m 132.1779,132.3717 -0.0699,-0.0975"
       id="path483" />
    <path
       d="m 166.9177,116.0267 0.4994,0.0128"
       id="path484" />
    <path
       d="m 82.5759,143.5229 -0.0092,0.1231"
       id="path485" />
    <path
       d="m 138.2672,70.487 0.0244,0.1197"
       id="path486" />
    <path
       d="m 57.1576,103.7035 0.0122,0.0977"
       id="path487" />
    <path
       d="m 56.1213,102.2345 0.085,0.0481"
       id="path488" />
    <path
       d="m 139.9399,80.8043 -0.3573,-0.8897"
       id="path489" />
    <path
       d="m 131.8058,128.0935 0.0296,0.0705"
       id="path490" />
    <path
       d="m 173.4855,115.7816 -0.0904,0.0789"
       id="path491" />
    <path
       d="m 176.5049,98.0351 0.005,0.125"
       id="path492" />
    <path
       d="m 138.1597,70.1376 0.0415,0.1146"
       id="path493" />
    <path
       d="m 132.3312,132.5562 -0.0789,-0.0904"
       id="path494" />
    <path
       d="M 41.9095,129.2385 42.03,129.2097"
       id="path495" />
    <path
       d="m 46.2536,149.6758 -0.1224,0.0166"
       id="path496" />
    <path
       d="m 82.579,143.3989 -0.003,0.124"
       id="path497" />
    <path
       d="m 151.7779,134.7527 -0.0826,0.0874"
       id="path498" />
    <path
       d="m 151.3266,135.1465 -0.1007,0.0652"
       id="path499" />
    <path
       d="m 65.3555,146.0515 1.2928,-0.0847"
       id="path500" />
  </g>
  <g
     style="fill:#000000;fill-opacity:0;stroke:#000000;stroke-width:0.05;stroke-linecap:round;stroke-linejoin:round;stroke-opacity:1"
     id="g501"
     transform="matrix(-1,0,0,1,176.5349,-63.9739)">
    <path
       d="m 45.18,67.9989 h 0.3799"
       id="path501" />
  </g>
  <g
     style="fill:#000000;fill-opacity:0;stroke:#000000;stroke-width:0.05;stroke-linecap:round;stroke-linejoin:round;stroke-opacity:1"
     id="g654"
     transform="matrix(-1,0,0,1,176.5349,-63.9739)">
    <path
       d="m 159.2659,117.7259 0.2936,-0.1766"
       id="path502" />
    <path
       d="m 115.3019,64.1015 0.1352,0.0442"
       id="path503" />
    <path
       d="m 44.8847,68.0208 0.0977,-0.0121"
       id="path504" />
    <path
       d="m 152.2748,133.9199 -0.0444,0.1158"
       id="path505" />
    <path
       d="m 131.917,128.4581 0.0109,0.0757"
       id="path506" />
    <path
       d="m 95.182,66.3749 0.0092,-0.1231"
       id="path507" />
    <path
       d="m 132.8902,133.0129 -0.1027,-0.065"
       id="path508" />
    <path
       d="m 154.3728,124.5989 0.1935,-0.527"
       id="path509" />
    <path
       d="m 95.599,65.1119 0.0706,-0.1004"
       id="path510" />
    <path
       d="m 169.024,116.1371 1.1695,0.1167"
       id="path511" />
    <path
       d="m 173.8075,115.4244 -0.0742,0.0953"
       id="path512" />
    <path
       d="M 43.5724,68.809 43.633,68.7314"
       id="path513" />
    <path
       d="m 130.5429,127.2135 0.0774,0.007"
       id="path514" />
    <path
       d="m 154.1013,92.7727 -0.9615,-0.256"
       id="path515" />
    <path
       d="m 176.006,96.6886 0.0699,0.0975"
       id="path516" />
    <path
       d="m 130.9201,127.2893 0.0718,0.0265"
       id="path517" />
    <path
       d="m 136.9459,68.8081 0.1079,0.0571"
       id="path518" />
    <path
       d="m 44.071,101.6629 -0.0803,-0.0565"
       id="path519" />
    <path
       d="m 176.2568,97.0975 0.0503,0.1095"
       id="path520" />
    <path
       d="m 144.1463,87.1026 -0.6474,-0.696"
       id="path521" />
    <path
       d="M 93.8272,67.9916 93.7535,67.997"
       id="path522" />
    <path
       d="m 175.2937,96.0475 0.1027,0.065"
       id="path523" />
    <path
       d="m 40.4532,130.2935 0.0699,-0.1023"
       id="path524" />
    <path
       d="m 56.5734,125.9793 -0.0515,0.0366"
       id="path525" />
    <path
       d="m 85.3917,133.673 0.5171,-0.7745"
       id="path526" />
    <path
       d="m 43.7287,148.5215 -0.0616,-0.1054"
       id="path527" />
    <path
       d="m 132.4144,132.6429 -0.0832,-0.0867"
       id="path528" />
    <path
       d="m 138.2806,73.2357 -0.003,-1.0036"
       id="path529" />
    <path
       d="M 43.9907,101.6064 43.9129,101.546"
       id="path530" />
    <path
       d="m 82.797,140.588 0.1676,-0.9185"
       id="path531" />
    <path
       d="M 43.4157,69.0571 43.4638,68.972"
       id="path532" />
    <path
       d="m 44.9314,149.5305 -0.1128,-0.0481"
       id="path533" />
    <path
       d="m 153.0554,129.5081 0.2413,-1.1271"
       id="path534" />
    <path
       d="m 43.3723,100.8535 -0.0396,-0.0892"
       id="path535" />
    <path
       d="m 172.9989,116.1304 -0.1068,0.0554"
       id="path536" />
    <path
       d="m 176.0759,96.7861 0.0652,0.1008"
       id="path537" />
    <path
       d="m 131.7066,131.2711 -0.0168,-0.1222"
       id="path538" />
    <path
       d="m 95.1771,66.5733 -0.0055,0.0738"
       id="path539" />
    <path
       d="m 82.3393,144.4671 -0.0548,0.109"
       id="path540" />
    <path
       d="m 56.3,126.1405 -0.0592,0.0254"
       id="path541" />
    <path
       d="m 130.9919,127.3158 0.0703,0.03"
       id="path542" />
    <path
       d="m 138.2371,70.3688 0.0302,0.1182"
       id="path543" />
    <path
       d="M 43.183,100.0981 43.1806,99.9989"
       id="path544" />
    <path
       d="m 174.3574,95.7175 0.1269,0.0211"
       id="path545" />
    <path
       d="m 41.4497,129.4101 0.1111,-0.0511"
       id="path546" />
    <path
       d="m 57.1776,124.8411 -0.0043,0.0655"
       id="path547" />
    <path
       d="m 149.6995,135.5704 -0.1278,-0.0147"
       id="path548" />
    <path
       d="m 136.6074,68.6693 0.1153,0.0408"
       id="path549" />
    <path
       d="m 80.3262,145.8867 -0.1232,0.009"
       id="path550" />
    <path
       d="m 94.8846,67.3913 -0.0453,0.0582"
       id="path551" />
    <path
       d="m 40.3288,130.5074 0.0594,-0.1083"
       id="path552" />
    <path
       d="m 41.6746,129.3132 0.1162,-0.0402"
       id="path553" />
    <path
       d="m 95.1625,66.7204 -0.0126,0.0725"
       id="path554" />
    <path
       d="m 94.8393,67.4495 -0.0484,0.0562"
       id="path555" />
    <path
       d="m 55.2786,102.0013 0.0985,0.007"
       id="path556" />
    <path
       d="m 149.9527,135.5802 -0.1261,-0.002"
       id="path557" />
    <path
       d="m 171.7035,116.4369 -0.1271,-0.008"
       id="path558" />
    <path
       d="m 89.8161,128.8607 0.7616,-0.5453"
       id="path559" />
    <path
       d="m 95.6696,65.0115 0.0755,-0.097"
       id="path560" />
    <path
       d="m 174.8492,95.8379 0.1159,0.0445"
       id="path561" />
    <path
       d="m 132.2523,132.4658 -0.0744,-0.0941"
       id="path562" />
    <path
       d="m 43.202,69.7036 0.0169,-0.0967"
       id="path563" />
    <path
       d="m 173.6548,115.6111 -0.0827,0.0874"
       id="path564" />
    <path
       d="m 175.5907,96.2563 0.0914,0.0785"
       id="path565" />
    <path
       d="m 131.9381,128.6869 -8e-4,0.0771"
       id="path566" />
    <path
       d="M 95.2544,65.8895 95.287,65.7718"
       id="path567" />
    <path
       d="m 131.7357,127.957 0.0368,0.0674"
       id="path568" />
    <path
       d="m 44.5989,101.9124 -0.0927,-0.0306"
       id="path569" />
    <path
       d="m 44.1531,68.2826 0.0851,-0.0481"
       id="path570" />
    <path
       d="m 160.1732,117.2256 0.321,-0.1472"
       id="path571" />
    <path
       d="m 132.6884,132.8782 -0.0953,-0.0742"
       id="path572" />
    <path
       d="m 93.9005,67.9825 -0.0733,0.0091"
       id="path573" />
    <path
       d="m 44.5057,68.116 0.0927,-0.0307"
       id="path574" />
    <path
       d="m 131.6898,131.1489 -0.0108,-0.1236"
       id="path575" />
    <path
       d="m 56.9878,103.1443 0.0395,0.0892"
       id="path576" />
    <path
       d="m 43.6974,68.6565 0.0685,-0.0718"
       id="path577" />
    <path
       d="m 138.5716,76.1823 -0.1432,-0.9702"
       id="path578" />
    <path
       d="m 131.1977,127.4163 0.0649,0.0404"
       id="path579" />
    <path
       d="m 164.6581,116.0999 0.4228,-0.0322"
       id="path580" />
    <path
       d="m 83.742,136.9934 0.3482,-0.86"
       id="path581" />
    <path
       d="m 141.757,84.1521 -0.5104,-0.8028"
       id="path582" />
    <path
       d="m 81.5663,145.4083 -0.1003,0.0706"
       id="path583" />
    <path
       d="m 152.2304,134.0357 -0.0499,0.1128"
       id="path584" />
    <path
       d="m 132.7875,132.9479 -0.0991,-0.0697"
       id="path585" />
    <path
       d="m 95.2064,66.1297 0.021,-0.1208"
       id="path586" />
    <path
       d="m 131.7579,131.5103 -0.0285,-0.1187"
       id="path587" />
    <path
       d="M 93.7535,67.997 93.679,67.9989"
       id="path588" />
    <path
       d="m 157.8805,118.7875 0.288,-0.255"
       id="path589" />
    <path
       d="m 153.1398,92.5167 -0.9409,-0.2995"
       id="path590" />
    <path
       d="m 175.9315,96.5946 0.0745,0.094"
       id="path591" />
    <path
       d="M 95.7451,64.9145 95.8257,64.821"
       id="path592" />
    <path
       d="m 174.0574,115.0069 -0.0551,0.1096"
       id="path593" />
    <path
       d="m 176.3918,97.4335 0.0341,0.1166"
       id="path594" />
    <path
       d="m 131.3861,127.5472 0.0583,0.0501"
       id="path595" />
    <path
       d="m 116.4844,64.8643 0.0917,0.1126"
       id="path596" />
    <path
       d="m 164.2484,116.1403 0.4097,-0.0404"
       id="path597" />
    <path
       d="m 94.1847,67.9111 -0.0695,0.023"
       id="path598" />
    <path
       d="m 82.4709,144.126 -0.0383,0.1158"
       id="path599" />
    <path
       d="m 95.0648,67.0729 -0.0296,0.0669"
       id="path600" />
    <path
       d="m 55.9449,102.1511 0.0892,0.0396"
       id="path601" />
    <path
       d="m 45.2808,149.6406 -0.1181,-0.0309"
       id="path602" />
    <path
       d="m 138.06,69.9147 0.0526,0.1103"
       id="path603" />
    <path
       d="m 95.179,66.4989 0.003,-0.124"
       id="path604" />
    <path
       d="m 174.2238,114.5377 -0.0332,0.1217"
       id="path605" />
    <path
       d="m 118.5843,67.2579 -0.0722,-0.0317"
       id="path606" />
    <path
       d="m 94.927,67.3311 -0.0423,0.0602"
       id="path607" />
    <path
       d="m 44.0705,68.3349 0.0826,-0.0523"
       id="path608" />
    <path
       d="m 172.6706,116.2811 -0.1144,0.0397"
       id="path609" />
    <path
       d="m 118.1222,66.9604 -0.0563,-0.0561"
       id="path610" />
    <path
       d="m 163.8509,116.1888 0.3976,-0.0485"
       id="path611" />
    <path
       d="m 173.2035,116.0049 -0.1008,0.0652"
       id="path612" />
    <path
       d="m 131.8317,131.7413 -0.0396,-0.1144"
       id="path613" />
    <path
       d="m 45.8861,149.7075 -0.1224,-0.002"
       id="path614" />
    <path
       d="M 44.1095,148.9968 44.024,148.9092"
       id="path615" />
    <path
       d="m 56.2408,126.1659 -0.0605,0.0229"
       id="path616" />
    <path
       d="m 131.9824,132.0696 -0.0554,-0.1067"
       id="path617" />
    <path
       d="m 136.7226,68.7101 0.1128,0.0463"
       id="path618" />
    <path
       d="m 43.5165,101.1085 -0.0523,-0.0828"
       id="path619" />
    <path
       d="m 173.1027,116.0701 -0.1038,0.0603"
       id="path620" />
    <path
       d="m 117.9617,66.7826 -1.3855,-1.8057"
       id="path621" />
    <path
       d="m 171.9546,116.4339 -0.125,0.005"
       id="path622" />
    <path
       d="m 85.9088,132.8985 0.5574,-0.749"
       id="path623" />
    <path
       d="m 138.3293,70.9725 6e-4,0.1235"
       id="path624" />
    <path
       d="m 138.3299,71.096 -0.006,0.1239"
       id="path625" />
    <path
       d="m 44.788,68.0377 0.0966,-0.0169"
       id="path626" />
    <path
       d="m 137.0537,68.8652 0.1049,0.0623"
       id="path627" />
    <path
       d="m 136.3711,68.6047 0.1191,0.0294"
       id="path628" />
    <path
       d="m 154.0868,125.4484 0.286,-0.8495"
       id="path629" />
    <path
       d="m 137.5458,69.2269 0.0878,0.0869"
       id="path630" />
    <path
       d="m 95.5998,125.9358 0.8963,-0.2422"
       id="path631" />
    <path
       d="m 43.9125,68.4518 0.0776,-0.0605"
       id="path632" />
    <path
       d="m 81.7569,145.2521 -0.0935,0.0806"
       id="path633" />
    <path
       d="m 119.0471,67.3657 -0.08,-0.0077"
       id="path634" />
    <path
       d="m 44.5062,101.8818 -0.091,-0.0352"
       id="path635" />
    <path
       d="m 43.3327,100.7643 -0.035,-0.0911"
       id="path636" />
    <path
       d="m 40.6772,129.9988 0.0835,-0.0899"
       id="path637" />
    <path
       d="m 172.8921,116.1858 -0.1095,0.0503"
       id="path638" />
    <path
       d="m 56.3695,102.3913 0.0775,0.0605"
       id="path639" />
    <path
       d="m 95.4187,65.4307 0.0549,-0.109"
       id="path640" />
    <path
       d="M 40.0817,132.053 40.065,131.9306"
       id="path641" />
    <path
       d="m 84.9158,134.4715 0.4759,-0.7985"
       id="path642" />
    <path
       d="m 144.8254,87.7688 -0.6791,-0.6662"
       id="path643" />
    <path
       d="M 44.4152,101.8466 44.326,101.8071"
       id="path644" />
    <path
       d="m 66.6483,145.9668 1.2949,-0.0509"
       id="path645" />
    <path
       d="m 43.6107,148.3078 -0.0512,-0.1112"
       id="path646" />
    <path
       d="m 118.9671,67.358 -0.079,-0.012"
       id="path647" />
    <path
       d="m 176.4941,97.9114 0.0108,0.1237"
       id="path648" />
    <path
       d="m 96.9519,64.107 0.1177,-0.0327"
       id="path649" />
    <path
       d="M 114.5928,63.9989 H 97.679"
       id="path650" />
    <path
       d="m 56.1804,126.1888 -0.062,0.0204"
       id="path651" />
    <path
       d="m 44.7886,101.9601 -0.0955,-0.0215"
       id="path652" />
    <path
       d="m 43.2408,100.4864 -0.0215,-0.0955"
       id="path653" />
    <path
       d="m 150.444,135.5251 -0.1205,0.0228"
       id="path654" />
  </g>
  <g
     style="fill:#000000;fill-opacity:0;stroke:#000000;stroke-width:0.15;stroke-linecap:round;stroke-linejoin:round;stroke-opacity:1"
     id="g2033"
     transform="translate(-40.025,-63.9739)" />
  <metadata
     id="metadata2110">
    <rdf:RDF>
      <cc:Work
         rdf:about="">
        <dc:title>SVG Image created as 3435-single-pcb-F_Fab.svg date 2023/12/15 16:06:36 </dc:title>
      </cc:Work>
    </rdf:RDF>
  </metadata>
</svg>
